<?xml version="1.0" encoding="utf-8"?>
<!-- Generator: Adobe Illustrator 22.0.0, SVG Export Plug-In . SVG Version: 6.00 Build 0)  -->
<svg version="1.0" xmlns="http://www.w3.org/2000/svg" xmlns:xlink="http://www.w3.org/1999/xlink" x="0px" y="0px"
	 viewBox="0 0 256 256" style="enable-background:new 0 0 256 256;" xml:space="preserve">
<style type="text/css">
	.st0{fill:#F7F5F2;}
	.st1{fill:#F2F0ED;}
	.st2{fill:#EAE9E8;}
	.st3{fill:#F6CF4B;}
	.st4{fill:#F3B74D;}
	.st5{fill:#3D241B;}
	.st6{fill:#935F4A;}
	.st7{fill:#723F2F;}
	.st8{fill:#99664D;}
	.st9{fill:#492D21;}
	.st10{fill:#69C3EB;}
	.st11{fill:#50B1CB;}
	.st12{fill:#4BABC4;}
	.st13{fill:#5CBDDF;}
	.st14{fill:#F3D686;}
	.st15{fill:#9AE0F8;}
	.st16{fill:#F38F3D;}
	.st17{fill:#4FB6DF;}
	.st18{fill:#B2E0E7;}
	.st19{fill:#E7F9FB;}
	.st20{fill:#CAEEF6;}
	.st21{fill:#52ADCD;}
	.st22{fill:#EEA443;}
	.st23{fill:#36A6C0;}
	.st24{fill:#ECA64A;}
	.st25{fill:#EEB748;}
	.st26{fill:#6ABDDA;}
	.st27{fill:#F6E1AC;}
	.st28{fill:#82D5F1;}
	.st29{fill:#F3A642;}
	.st30{fill:#6BCDEC;}
	.st31{fill:#FFFFFF;}
	.st32{fill:#D0D5D6;}
</style>
<g id="Layer_11">
	<path class="st0" d="M256,0v65.3c0,0-90.6-17.8-124.3-65.3L256,0z"/>
	<path class="st1" d="M256,0v50.4c0,0-87.6-3.7-124.3-50.4L256,0z"/>
	<path class="st0" d="M0,0v65.3c0,0,96-17.8,131.7-65.3H0z"/>
	<path class="st1" d="M0,0v50.4c0,0,92.8-3.7,131.7-50.4H0z"/>
	<path class="st0" d="M0,256v-3.2c0,0,2.4-61.8,47.7-58.7c45.3,3.1,15.7-81.6,83.9-83.8c68.2-2.2,33.2,84.7,81.1,84.7
		c32.7,0,43.2,45.2,43.3,57.8v3.2H0z"/>
	<path class="st0" d="M0,0c0,0,56.8,62.8,131.7,0c0,0,64,57.8,124.3,0H0z"/>
	<path class="st1" d="M96.7,11.8c0,0-30.9,13.8-51.2-2.5C45.5,9.3,72.1,15.5,96.7,11.8z"/>
	<path class="st1" d="M164.7,11.8c0,0,29.1,13.8,48.4-2.5C213.1,9.3,188,15.5,164.7,11.8z"/>
	<path class="st2" d="M5.1,29.2c0,0,13.5,10.2,42.9,7.5C48,36.7,10.1,46,5.1,29.2z"/>
	<path class="st2" d="M251.6,29.2c0,0-13.5,10.2-42.9,7.5C208.7,36.7,246.5,46,251.6,29.2z"/>
</g>
<g id="Layer_7">
	<path class="st3" d="M165.5,202.9c0,0-0.2,0.3-0.6,0.9c-1.7,2.3-6.6,8.5-11.6,9.9c-0.9,0.3-1.8,0.4-2.7,0.3c0-0.2-2.6-6.9-2.6-6.9
		l-0.9-19.5l-0.1-1.7l2.3-5.8c1.2,0.4,2.2,0.4,6.2,5.5C159.6,190.9,165.5,202.9,165.5,202.9z"/>
	<path class="st3" d="M111.4,207.7l-3,7.3c-0.4,0.1-0.9,0.2-1.3,0.2c-5.7,0.7-10.3-2.1-13-4.3c-1.6-1.3-2.4-2.3-2.4-2.3
		s6.1-12.9,8.4-17.2c3.6-6.4,7-7.7,8.1-8.2l1.7,5.6l0.1,0.5L111.4,207.7z"/>
	<path class="st4" d="M153.3,213.8c-0.9,0.3-1.8,0.4-2.7,0.3c0-0.2-2.6-6.9-2.6-6.9l-0.9-19.5l3.2-2.1c0,0,3.1,15.5,2.7,16.7
		c-0.4,1.2-2.2,5.8-2.2,5.8L153.3,213.8z"/>
	<path class="st4" d="M111.4,207.7l-3,7.3c-0.4,0.1-0.9,0.2-1.3,0.2c0,0,1.1-3.9,1.3-5.2c0.2-1.3-2.9-3.7-3.6-6.1
		c-0.7-2.4,2.4-17.8,2.4-17.8l2.7,2.7l0.1,0.5L111.4,207.7z"/>
	<path class="st3" d="M109.1,243c0.2-0.9-1.1-1.8-0.5-2.4c0.2-0.2,0.5-3.1,0.9-7c0,0,0-0.1,0-0.1c0.8-8.6,1.9-22.1,1.7-22.4
		c-0.2-0.5-4-5-4.8-7.9c0,0,0,0,0-0.1v0c0-0.2-0.1-0.3-0.1-0.5c-0.4-2.8,0.7-17.1,1.3-19.1c0.1-0.2,1.2-0.7,2.9-1.4c0,0,0.1,0,0.1,0
		c1.4-0.5,3.1-1.2,4.8-1.8c0,0,0,0,0,0c3.5-1.2,7.1-2.4,7.8-2.7c1.5-0.6,9.1-1.1,10.9-1c0.9,0.1,4.9,1,8.6,1.8c0,0,0,0,0.1,0
		c1.2,0.3,2.3,0.5,3.3,0.8c0,0,0,0,0.1,0c1.7,0.4,2.9,0.7,3.2,0.8c0.9,0.2,2.2,18,2.3,21v0.1c0,0.1,0,0.1,0,0.2
		c-0.1,2-4.7,8.5-4.5,9.4c0.2,0.9,6.1,26.8,6.2,27.8c0.1,1.1-0.1,1.7,0,1.9c0.1,0.3,1.1,1.1,0.9,1.4c-0.2,0.4,1.4,13,1.4,13h-46.9
		c0,0,0.2-8,0.4-11C109,243.5,109.1,243.2,109.1,243z"/>
	<path class="st4" d="M146.1,181.3c0,0,0.3,8.8,0.6,9.9s1.7,4.7,1.7,4.7l-5.2-2l-2-5.3L146.1,181.3z"/>
	<path class="st4" d="M110.9,184.5c0,0,0.6,4.8,0,6.6c-0.6,1.8-1.7,6-1.7,6l4.9-2.6v-7.3L110.9,184.5z"/>
	<path class="st5" d="M117.2,158.7c0,0-4.8-3.8-4.6-4.6c0.2-0.8,0-1.3,0-1.4c0-0.1-1.1-2-0.9-2.3c0.2-0.3,0.6,0.5,0.8,0.2
		c0.2-0.3-1-1.3-0.7-1.6c0.3-0.3,0.7,0,0.6-0.5c-0.1-0.5-0.7-0.8-0.3-1.3c0.4-0.5,0.6-0.2,0.3-1.1s-0.3-1.2,0-1.6
		c0.3-0.5,1.1,0.1,1.5-0.8s-0.2-1.6,0.8-1.9c1-0.4,0.8,0.8,1.2,0.6s0.7,0.2,1-0.1c0.4-0.2,0.8-1.2,1.5-1.5c0.7-0.2,0.2-0.8,0.7-0.9
		c0.6-0.1,1.1,0.2,1.3,0s0.6-1.2,1.1-1.4c0.5-0.2,0.6,0.2,0.8,0s0.7-0.7,1-0.7c0.3,0.1,0.1,1,0.5,0.9s0.5-0.9,1.1-1s0.7,0.5,0.9,0.5
		s0.3-0.4,0.6,0c0.2,0.3,0.5,0.7,0.8,0.7s0.8-0.8,1-0.8c0.3,0,0.4,0.3,0.7,0.3c0.3,0,1.2-0.9,1.8-0.9c0.6,0,0.6,1.2,1,1.1
		c0.5-0.1,0.7-0.6,0.8-0.5c0.1,0.1,0,0.6,0.2,0.7c0.2,0,0.4-0.2,0.9-0.1c0.5,0.1,0.3,2,0.8,2.1s1-0.6,1.3-0.2
		c0.3,0.4-0.3,1.3,0.3,1.5s1.1-0.7,1.6-0.2s1.1,2.8,0.7,4.5c-0.4,1.7-0.2,1.6,0.1,1.4s0.8-0.7,0.9-0.3c0.1,0.4,0.3,1.3,0.6,1.2
		c0.3-0.1,0.7,0.1,0.7,0.4s-2.3,4.3-2.1,4.7c0.1,0.4,0.4-0.1,0.5,0.3c0.1,0.5-1.7,1.3-1.7,1.7s0.2,0.5,0.1,0.8
		c-0.1,0.3-0.5,0.5-0.4,0.8c0.1,0.3-2,1.8-2,1.8l-2.8-4.1l-6.2-3.7L117.2,158.7z"/>
	<path class="st4" d="M115.5,180.5l3.8,10.3l10.6,1.7l10.1-2.1l2.8-11.7l1.2,2l-0.7,14.3l-26.4,4c0,0-4.3-16-4.3-16.5
		C112.5,182,115.5,180.5,115.5,180.5z"/>
	<path class="st6" d="M134.2,176.8c0,0-1.3,4.3-6.2,5.2c-5,0.9-6.1-3.8-6.1-3.8l0-1.2l0-0.4l0-0.3l-0.1-3.9l10.6-1.9
		c0,0,0.1,2.5,0.2,4.2c0,0.8,0.1,1.4,0.1,1.5c0.1,0.2,0.5,0.4,0.9,0.5h0C133.8,176.8,134.2,176.8,134.2,176.8z"/>
	<path class="st7" d="M122.1,174.1c0,0,2.6,3.7,4.9,3.7c2.3,0,4.3-2.3,4.3-2.3l0.6-3.3L122.1,174.1z"/>
	<path class="st8" d="M118.6,163.4c0,0,1.2,6.6,1.6,8.3c0.4,1.7,4.6,4.9,5.8,5s2.6-0.1,3.3-0.6s3.6-3.6,4-5.3s0.8-9.9,0.8-10.7
		s-2.3-6.7-2.3-6.7l-7.1-0.8l-6,4.1C118.6,156.7,118.2,160.9,118.6,163.4z"/>
	<path class="st3" d="M117.7,154.7c0,0-0.6-0.6-0.2-1.4s1.8-4.1,7.3-4.8c5.4-0.7,7.8,3.7,7.8,3.7l-8.4,0.3L117.7,154.7z"/>
	<path class="st4" d="M116.2,180.2c0,0,1.3,8.9,6.5,9.8c5.2,0.9,5.7-3.8,5.7-3.8l0,1.6l-2.5,4.8l3,2.7l2.4-5l-0.3-5.4l-6.5-0.5
		l-6.1-4.7L116.2,180.2z"/>
	<path class="st9" d="M133.9,164.1c0,0-0.8-4.4-1.6-6.4c-1.1-2.6-3.8-3.3-5.8-3.3c-2,0-4.7,0.7-6.4,3.5c-1.6,2.6-1.2,5.1-1,7.4
		l-1.5-1c0,0-1.9-6.7,1.1-11.4c2.5-4,10.4-4.9,14-1.2c3.7,3.7,2.3,12.8,2.3,12.8L133.9,164.1z"/>
	<path class="st10" d="M109,243c0.2-0.9-1.1-1.8-0.5-2.4c0.1-0.1,0.4-1.9,0.6-4.4c0.1-0.8,0.2-1.7,0.2-2.6c0,0,0-0.1,0-0.1
		c0.2-1.8,0.3-3.9,0.5-6c0.6-7.7,1.1-16.1,1-16.4c-0.2-0.5-3.9-5-4.5-7.9l0.1-0.1c0,0,5-10.9,5.4-12.4l-1.3-8.5v0c0,0,0,0,0,0
		c0.3-0.3,2.2-2.3,4.9-1.8c0,0,0,0,0,0c0,0,0,0,0,0c0.1,0.2,3.2,10.9,3.4,11.1c0.1,0.1,3.5,0,7.6-0.1c1,0,2,0,3.1-0.1
		c5.4-0.1,10.7-0.3,10.8-0.3c0.2-0.1,2.3-12,2.4-12.5c0,0,0,0,0,0s2.1-0.5,3.3,0.8c0,0,0,0,0,0c0,0.5-0.1,11.9,0,12.2
		c0.1,0.2,3.5,6.2,5.4,9.6c0,0,0,0.1,0.1,0.1c0,0.1,0,0.1,0,0.2c-0.1,2-3.4,8.8-3.2,9.7c0.1,0.6,2,10.9,3.4,18.8
		c0.4,2.4,0.8,4.6,1.1,6.2c0.3,1.5,0.4,2.4,0.4,2.6c0.1,1.1-0.1,1.7,0,1.9c0.1,0.3,1.1,1.1,0.9,1.4c-0.2,0.4,1.4,13,1.4,13h-48.1
		c0,0,1-8,1.4-11C108.9,243.5,109,243.1,109,243z"/>
	<path class="st11" d="M138.9,241.2c1.8,1.8,1.8,4.7-0.4,6.6c-5.4,4.4-11.3,2.3-11.3,2.3s-1.8,1.7-3,2.3c-1.2,0.6-2.3,0-2.3,0
		l2.3-3.8c-6-3.7-2.7-8.8-2.7-8.8l-0.8-0.8c0,0-7.6-1.8-11.6-2.7c0.1-0.8,0.2-1.7,0.2-2.6c0,0,0-0.1,0-0.1c0.2-1.8,0.3-3.9,0.5-6
		l4.6,4l10.4,4.1l0.5,0.2l1.1,0.4l0.4,0.2l0.9,0.3l0.2,0.1l5.1,2l0.4,0.1l1.8,0.7l1.2-0.7l0.3-0.2l3.8-2.2l0.3-0.2l11-6.4
		c0.4,2.4,0.8,4.6,1.1,6.2l-12.9,4.7l-0.2,0.1l-0.5,0.2L138.9,241.2C138.9,241.2,138.9,241.2,138.9,241.2z"/>
	<path class="st12" d="M131.1,202l-2.6,2l-1.6,0.5c0,0-1.2-3.2-1.1-6.4c0.1-3.2,0.6-6.5,0.6-6.5c1,0,2,0,3.1-0.1l1.5,7.6L131.1,202z
		"/>
	<g>
		<polygon class="st3" points="128.5,204.5 128.9,204.3 129.3,205.8 128.9,205.8 		"/>
		<polygon class="st3" points="129.3,204.4 129.7,204.3 130.1,205.7 129.7,205.8 		"/>
		<polygon class="st3" points="130.1,204.1 130.5,205.4 130.9,205.2 130.5,203.8 		"/>
		<polygon class="st3" points="130.8,203.8 131.4,205.3 131.7,205.1 131.4,203.7 		"/>
		<polygon class="st3" points="131.7,203.6 132.1,205.1 132.5,204.9 132.1,203.6 		"/>
		<polygon class="st3" points="132.5,203.5 132.8,204.6 133.2,204.6 132.7,203.3 		"/>
	</g>
	<path class="st4" d="M133.2,187.8c0,0,4.4-1.1,5-6.5l-5,2V187.8z"/>
	<path class="st13" d="M128.4,187.8c0,0-1,5.4-1.4,9.1c-0.4,3.7,1.4,8.2,1.4,8.2l4.8-1.1c0,0-1.9-5.7-1.4-8.1s2.3-11.4,2.2-11.9
		C134,183.5,128.6,186.6,128.4,187.8z"/>
	<path class="st12" d="M130.1,186.2c0,0-2,8-1.2,8.3C129.7,194.8,130.1,186.2,130.1,186.2z"/>
	<path class="st12" d="M131.4,186.2c0,0-2.3,8.3-1.3,8.3C131.1,194.6,131.4,186.2,131.4,186.2z"/>
	<path class="st10" d="M139.2,177.8c0,0-1.6,10.6-10.8,10c0,0-1.5,3.4-5.3,1.3c-3.8-2.1-7-8.9-7-8.9s1.2-1.9,2.3-2.5
		c1.1-0.6,1.9,0,1.9,0s-0.1-1.3,1.4-1.4l0,0.7c0,0,1.4,4.3,5.7,3.8c4.3-0.5,5.9-4.1,5.9-4.1h0c-0.4-0.1-0.8-0.2-0.9-0.5
		c0-0.1-0.1-0.5-0.1-1c0-0.2,0-0.3,0-0.5c0.4-0.2,1-0.4,1.6-0.3c1,0.2,1.7,2.2,1.7,2.2s1.8-0.9,2.6-0.4
		C139,176.6,139.2,177.8,139.2,177.8z"/>
	<g id="Layer_5">
	</g>
	<g id="Layer_9">
		<path class="st4" d="M124.3,245.1c-0.6,1.5-1.9,4.6-2.4,5.9c-0.1,0.3,0,0.6,0.2,0.8l0.6,0.4c0.3,0.2,0.6,0.2,0.9,0l4.7-4.2
			c0.3-0.3,0.3-0.8-0.1-1.1l-2.9-2.1C125,244.5,124.5,244.7,124.3,245.1z"/>
		<ellipse class="st3" cx="130.5" cy="242.6" rx="8.9" ry="7.1"/>
		<path class="st4" d="M137.6,242.6c0,1.5-0.8,2.9-2,3.9c-1.3,1.1-3.2,1.8-5.2,1.8c-4,0-7.2-2.6-7.2-5.7c0-1.2,0.4-2.2,1.2-3.1
			c1.3-1.5,3.5-2.6,6-2.6C134.4,236.9,137.6,239.5,137.6,242.6z"/>
		<path class="st14" d="M136.8,243.4c0,1.2-0.4,2.2-1.2,3.1c-1.3,1.1-3.2,1.8-5.2,1.8c-4,0-7.2-2.6-7.2-5.7c0-1.2,0.4-2.2,1.2-3.1
			c1.3-1.1,3.2-1.8,5.2-1.8C133.6,237.7,136.8,240.3,136.8,243.4z"/>
	</g>
	<path class="st8" d="M167.9,224.8c-0.4,0.4-28.6,15-28.9,15.1c-0.2,0.1-1.9,1.7-3.6,3.3c-0.3,0.2-0.5,0.5-0.8,0.7
		c-0.4,0.3-0.7,0.7-1,1c-0.4,0.4-0.7,0.7-1,1c-0.4,0.4-0.7,0.6-0.7,0.7c-0.3,0.2-6.7-0.1-7-0.2c-0.3-0.1-1.3-2.1-1.3-2.1
		s-0.7,0-0.9,0s-0.6-0.7-0.6-0.7l1.8-1.3l2.3-1.6c0,0-1.5,0.4-3,0.7c-1.2,0.3-2.4,0.4-2.5,0.2c-0.1-0.2,0.7-0.7,1.7-1.3
		c0.7-0.4,1.4-0.8,2.1-1.2c0.9-0.5,1.6-0.8,1.6-0.9c0.1-0.1,0.7-1.2,0.7-1.2s2.9-0.9,3.5-1c0.6-0.1,4.4-0.7,4.9-1.2
		c0.5-0.4,19.7-16.7,19.7-17c-0.1-0.2-1.1-2.8-1.8-4.3c4.2-1.2,8.2-5.6,10.5-8.4c0.5-0.6,0.8-1.1,1.1-1.5
		C167.8,210.9,168.2,224.5,167.9,224.8z"/>
	<path class="st7" d="M133.6,245c-0.4,0.4-1.5,1.2-1.9,1.3c-2.1-0.2-5.5-1-5.7-1.2c-0.1-0.1-1-1.3-2-2.6l2.3-1.6c0,0-1.5,0.4-3,0.7
		c-0.3-0.4-0.5-0.7-0.8-1c0.7-0.4,1.4-0.8,2.1-1.2c0.9,0.3,1.6,0.5,1.6,0.5L133.6,245z"/>
	<path class="st7" d="M134.6,244l-2.9-3.9l1.5,4.4l-1.4-1l-0.8-3.9l1.3-0.2l3.1,3.9C135.1,243.5,134.9,243.7,134.6,244z"/>
	<polygon class="st7" points="132,236.3 132.8,236.6 133.6,238.9 135.1,241.8 132,240.1 130.5,238.1 	"/>
	<path class="st8" d="M136.1,244.6c0,0-4.2-4.6-4.4-4.5c-0.1,0,2.9,5.4,2.6,5.6c-0.2,0.2-1.9-0.8-1.9-0.8l-0.9,1.1
		c0,0-5.1-1.2-5.3-1.4c-0.2-0.2-4.6-5.7-5.1-6.1c-0.5-0.4-19.2-6-26.6-11.5c-0.6-0.5-1.2-1.6-1.6-2.9c0-0.1,0-0.1,0-0.1
		c-0.2-0.9-0.3-1.8-0.2-2.7c0.1-1.6,1-7.3,1.4-10.4c1.1,0.9,2.5,1.8,4.1,2.7h0c2.5,1.2,5.5,2,8.9,1.6l-0.2,2.4c0,0,6.3,6.4,7.9,7.9
		c1.6,1.5,8,6.8,9.4,7.4c1.3,0.6,7.4,2.5,7.8,2.8c0.3,0.2,1.3,3,1.3,3s3.3,4.9,3.4,5.2C136.6,244.2,136.1,244.6,136.1,244.6z"/>
	<path class="st8" d="M119,165.3c0,0-0.8-1.7-1.4-1.8c-0.5-0.1-1.4,1.2-1.1,2.2c0.3,1,2,3.6,2.4,3.5c0.4-0.1,1-0.6,1-0.6L119,165.3z
		"/>
	<path class="st8" d="M133.9,164.1c0,0,1.1-2.6,1.5-2.7s0.8,0.3,0.8,0.9c0,0.5-0.9,4.8-1.3,4.9c-0.4,0.1-1.3-0.1-1.3-0.1
		S133.6,164.3,133.9,164.1z"/>
	<g id="Layer_8">
		<path class="st3" d="M124,216.4c-1.9-1.6-4.7,3.3-4.7,3.3l0.4,0.4c0,0,1.5-3,3.9-2.5c2.3,0.4,2.9,5.4-0.3,7.5l-0.2-4.3l-1.3,0.3
			l0.6,9.7h1.2l-0.3-5.2C124.6,224.4,128.7,220.4,124,216.4z"/>
		<path class="st3" d="M131.9,222.8c-2.6-2.1-4.5-6.3-1.9-6.8c2.1-0.4,1.3,4.4,1.3,4.4h1.4c0,0,0.1-5.8-2.7-5.3s-1.8,5.8,0.7,7.9
			c2.5,2.1,2.7,5.6,0.9,6c-1.7,0.4-2.2-3-2.2-3l-1.5,0.2c0,0,0.5,4.2,3.9,3.4C135,228.8,134,224.5,131.9,222.8z"/>
		<path class="st3" d="M140.5,222.3c0,0,1.5-2.1,1.2-2.7c-0.3-0.7-2.2-2.9-3.1-3.2c-0.9-0.3-3.5,3.4-3.5,3.4l0.9,0.7
			c0,0,1.4-3.6,2.5-3.1c1.1,0.5,1.9,1.6,2.1,2.3c0.2,0.6-2.2,2.9-3,3.6c0.2-1.6,0.4-2.9,0.4-2.9l-1.4,0.1c-0.6,2.5,0,9.9,0,9.9
			l0.7-0.3c-0.3-1.2-0.1-3.8,0.2-6c0.6-0.4,2.2-1.3,3.9-0.4c2,1.1-1.7,5.5-4.1,5.9l0.1,0.5c0,0,4.4-1.1,5.4-5.7
			C143.3,222,140.5,222.3,140.5,222.3z"/>
	</g>
	<path class="st7" d="M125.9,169.1c0,0,1.5,0.2,2.5,0v0.6C128.4,169.7,126.5,169.9,125.9,169.1z"/>
	<path class="st7" d="M117.2,165.3c0,0,0.2-0.8,0.7-0.3c0.5,0.5,0.5,1.9,0.5,1.9s-0.3,0.2-0.2,0.5c0.1,0.3,0.6,0.3,0.6,0.3
		s-0.7,0.3-0.8-0.3c-0.2-0.5,0.2-0.8,0.2-0.8S118.2,164.6,117.2,165.3z"/>
	<path class="st7" d="M135.7,163c0,0,0.3-0.9,0-0.9c-0.3,0-1.1,2.3-1.1,2.3s0.2,0.4,0.2,0.7c0,0.3-0.4,0.5-0.4,0.5s0.7-0.1,0.7-0.5
		c0-0.4-0.2-0.8-0.2-0.8S135.4,162.1,135.7,163z"/>
	<path class="st11" d="M120.4,177.7c0,0,0.5,3.3,4.2,4.8C124.5,182.5,118.7,181.2,120.4,177.7z"/>
	<polygon class="st11" points="121.8,177 121.4,176.6 121.8,176.5 	"/>
	<path class="st11" d="M128.4,187.8c0,0-4.3-0.2-7-5C121.4,182.8,123.1,190.3,128.4,187.8z"/>
	<path class="st11" d="M135.7,176.5c0,0-0.6,6-7.8,6.3C127.9,182.8,136.8,184.8,135.7,176.5z"/>
	<path class="st11" d="M133.4,176.7L133.4,176.7c-0.4-0.1-0.8-0.2-0.9-0.5c0-0.1-0.1-0.5-0.1-1c0.1,0,0.1,0,0.2,0
		C133.7,175.2,133.4,176.7,133.4,176.7z"/>
	<path class="st11" d="M115.2,181l3.3,10.7C118.4,191.7,116.1,186.8,115.2,181z"/>
	<path class="st11" d="M143,179.1l-2.2,11.7C140.9,190.8,143,184.5,143,179.1z"/>
	<path class="st11" d="M111.6,211.2l6.8,1.2C118.4,212.3,111.8,213.3,111.6,211.2z"/>
	<path class="st11" d="M147.7,211.2c0,0-2.6,0.8-4.7,0.7C143,211.9,146.5,213.8,147.7,211.2z"/>
	<path class="st7" d="M132.3,244.4l-2.4-3.6C129.9,240.8,131.5,244.2,132.3,244.4z"/>
	<path class="st7" d="M107.1,215.2l-0.2,2.4c-5.3-1.4-9.6,0-9.8,0.1c4.2-2.4,9.4-0.8,9.5-0.7l-0.8-1.1c-5,0-7.5-2.3-7.5-2.3h0
		C100.7,214.8,103.7,215.7,107.1,215.2z"/>
	<path class="st7" d="M121.1,238.6c-0.5-0.4-19.2-6-26.6-11.5c-0.6-0.5-1.2-1.6-1.6-2.9c0.1,0.4,0.6,1.7,2,2.5
		c1.7,0.9,9.8,6.4,25.9,11.2L121.1,238.6z"/>
	<path class="st7" d="M164.4,218.1c-4.8-3.1-9.4,0-9.4,0c-0.1-0.2-1.1-2.8-1.8-4.3c4.2-1.2,8.2-5.6,10.5-8.4
		c-2.3,4.5-8.2,9.5-8.2,9.5l0.3,1.6C160.7,215,164.2,217.9,164.4,218.1z"/>
</g>
<g id="Layer_10">
	<g>
		<path class="st15" d="M222.2,139.1l0.1,1.1c0.5,0.1,1.1,0.1,1.7,0.2l0-1.1l0.4,1.1c0.3,0,0.7,0,1,0l-0.4-1.2l0.7,1.2
			c0.8-0.1,1.6-0.2,2.5-0.5l-0.1-1.4l0.5,1.3c0.6-0.2,1.2-0.4,1.7-0.8l-0.1-0.7l0.4,0.5c0.6-0.3,1.1-0.8,1.6-1.3c0,0-1-0.7-2.8-1.1
			l-0.2,0.5l-0.2-0.6c-0.8-0.1-1.8-0.2-2.8-0.2l-0.1,1.5l-0.4-1.5c-0.7,0.1-1.4,0.2-2.2,0.4l0,1.3l-0.5-1.2
			c-0.3,0.1-0.7,0.2-1.1,0.4l0.2,0.6l-0.4-0.5c-0.8,0.3-1.6,0.7-2.4,1.2l0.1,1c0,0,1,0.4,2.6,0.7L222.2,139.1z"/>
		<path class="st10" d="M218,136.3l-1,0.3c-0.3-0.5-0.5-1-0.8-1.6l1.1-0.4l-1.2,0c-0.1-0.3-0.2-0.6-0.3-0.9l1.3,0l-1.4-0.3
			c-0.2-0.8-0.4-1.6-0.5-2.5l1.3-0.4l-1.4,0c0-0.6,0-1.2,0.1-1.9l0.7-0.2l-0.6-0.2c0.1-0.6,0.3-1.3,0.6-2c0,0,1,0.7,2,2.2l-0.4,0.4
			l0.6,0c0.4,0.7,0.8,1.6,1.2,2.6l-1.4,0.6l1.5-0.1c0.2,0.7,0.3,1.4,0.4,2.2l-1.2,0.5l1.3,0.1c0,0.4,0,0.7,0,1.1l-0.6,0l0.6,0.3
			c0,0.8-0.1,1.7-0.2,2.7l-1,0.3c0,0-0.8-0.8-1.6-2.2L218,136.3z"/>
		<path class="st4" d="M221.9,138l0.6,0.9c0.5-0.2,1.1-0.4,1.6-0.7l-0.6-1l0.9,0.8c0.3-0.1,0.6-0.3,0.9-0.5l-0.9-0.9l1.2,0.7
			c0.7-0.4,1.4-0.9,2-1.6l-0.8-1.1l1,0.9c0.4-0.4,0.8-0.9,1.2-1.5l-0.4-0.6l0.6,0.3c0.3-0.6,0.6-1.2,0.9-1.9c0,0-1.2-0.2-3,0.3
			l0.1,0.5l-0.5-0.4c-0.8,0.2-1.7,0.6-2.6,1.2l0.6,1.4l-1-1.1c-0.6,0.4-1.2,0.8-1.8,1.4l0.6,1.2l-1-0.8c-0.3,0.3-0.5,0.5-0.8,0.8
			l0.4,0.4l-0.6-0.2c-0.5,0.6-1.1,1.3-1.6,2.2l0.6,0.9c0,0,1.1-0.1,2.6-0.6L221.9,138z"/>
		<path class="st16" d="M219.2,136.1l-1-0.2c0-0.5,0-1.1,0-1.7l1.1,0.2l-1.1-0.5c0-0.3,0.1-0.7,0.1-1l1.2,0.6l-1.1-0.9
			c0.2-0.8,0.4-1.6,0.7-2.4l1.3,0.3l-1.2-0.6c0.3-0.6,0.6-1.1,1-1.6l0.7,0.2l-0.5-0.5c0.4-0.5,0.9-1,1.4-1.5c0,0,0.6,1.1,0.8,2.9
			l-0.5,0.1l0.6,0.3c0.1,0.8,0,1.8-0.2,2.8l-1.5-0.1l1.4,0.6c-0.1,0.7-0.4,1.4-0.7,2.2l-1.3-0.2l1.1,0.6c-0.1,0.3-0.3,0.7-0.5,1
			l-0.5-0.2l0.4,0.5c-0.4,0.7-0.9,1.5-1.4,2.3l-1-0.2c0,0-0.3-1.1-0.4-2.7L219.2,136.1z"/>
		<path class="st10" d="M221.2,137l0.9,0.6c0.4-0.4,0.8-0.8,1.3-1.2l-0.9-0.7l1.1,0.4c0.2-0.2,0.4-0.5,0.6-0.8l-1.2-0.5l1.4,0.2
			c0.5-0.7,0.9-1.4,1.3-2.2l-1.1-0.8l1.3,0.5c0.2-0.6,0.4-1.2,0.5-1.8l-0.6-0.4l0.7,0c0.1-0.7,0.1-1.3,0.1-2.1c0,0-1.2,0.3-2.6,1.4
			l0.3,0.5l-0.6-0.2c-0.6,0.5-1.3,1.2-2,2l1.1,1.1l-1.4-0.6c-0.4,0.6-0.8,1.2-1.1,2l1,0.8l-1.2-0.4c-0.1,0.3-0.3,0.7-0.4,1.1
			l0.5,0.2l-0.6,0c-0.3,0.8-0.5,1.7-0.7,2.6l0.8,0.6c0,0,1-0.5,2.2-1.5L221.2,137z"/>
		<path class="st4" d="M208.3,134.2L197.4,150c0,0,0,0.9,1,0.7l10.9-15.9L208.3,134.2z"/>
		<path class="st3" d="M234.3,143.2c-1.9,0.8-3.3,0.3-4.6-0.7c0,0-8.6-6.1-10.5-3.3l0,0c1.9-2.8-7-8.8-7-8.8
			c-1.5-0.9-1.8-1.4-2.2-3.6c-0.2,0.1-4,6.1-3,9.8c0.8,2.9,2.8,4.5,5.7,5.1c1.2,0.2,2.2,0.8,2.7,1.9c0.2,0.4,0.4,0.6,0.8,0.6
			c1.4,0.1,2.3,1,3,2.1c2.4,3.4,5.8,4.3,9.5,2.5C231.2,147.7,233,146,234.3,143.2z M221.9,144.8c-0.2-0.2-0.7-0.4-0.8-0.7
			c-0.1-0.1-0.1-0.3,0-0.5c0.1-0.3,0.3-0.4,0.5-0.5l0,0c0.3-0.1,0.7-0.1,1-0.1c1.3-0.1,2.5,0.3,3.6,1c0.8,0.5,0.7,1,0,1.4
			C224.6,146,223.2,145.7,221.9,144.8z M214.6,139.1c-0.2,0.2-0.4,0.2-0.5,0.2c-0.4-0.1-0.7-0.5-1.1-0.6c-1.3-0.9-2.1-2-1.9-3.7
			c0.1-0.9,0.6-1,1.3-0.5c1,0.8,1.7,1.7,2.1,2.8c0.1,0.4,0.3,0.7,0.3,1.1C214.9,138.7,214.8,138.9,214.6,139.1z"/>
		<path class="st14" d="M232.1,145.4c-1.3,0.1-2.4-0.4-3.5-1.2c0,0-8.6-6.1-10.1-3.9l0,0c1.5-2.2-7.4-8.2-7.4-8.2
			c-1.2-0.7-1.6-1.2-2.1-2.3c-0.8,1.6-2,4.6-1.2,6.9c0.9,2.5,2.9,4,5.5,4.7c1.1,0.3,2,0.8,2.6,1.8c0.2,0.3,0.4,0.5,0.8,0.6
			c1.3,0.2,2.1,1,2.9,2c2.4,3,5.5,4,8.7,2.8C229.9,147.9,231.2,146.9,232.1,145.4z M214.6,139.1c-0.1,0.1-0.3,0.2-0.4,0.2
			c0,0-0.1,0-0.1,0c-0.4-0.1-0.7-0.5-1.1-0.6c-1.3-0.9-2.1-2-1.9-3.7c0-0.1,0.1-0.3,0.1-0.4c0.2-0.5,0.6-0.6,1.2-0.1
			c1,0.8,1.7,1.7,2.1,2.8c0.1,0.4,0.3,0.7,0.3,1.1C214.9,138.7,214.8,138.9,214.6,139.1z M221,143.5c0.1-0.3,0.3-0.4,0.5-0.5l0,0
			c0.3-0.1,0.7-0.1,1-0.1c1.3-0.1,2.5,0.3,3.6,1c0.6,0.4,0.7,0.8,0.3,1.1c-0.1,0.1-0.2,0.2-0.3,0.2c-1.5,0.8-2.8,0.5-4.2-0.5
			c-0.2-0.2-0.7-0.4-0.8-0.7c0-0.1-0.1-0.1-0.1-0.2C221,143.8,221,143.7,221,143.5z"/>
		<path class="st10" d="M232.1,145.4c-1.3,0.1-2.4-0.4-3.5-1.2c0,0-8.6-6.1-10.1-3.9l0,0c1.5-2.2-7.4-8.2-7.4-8.2
			c-1.2-0.7-1.6-1.2-2.1-2.3c0.4-0.7,0.7-1.2,0.7-1.2c0.5,1.8,0.8,2.3,2.2,3.2c0,0,8.4,5.7,6.9,7.9l0,0c1.5-2.2,9.7,3.6,9.7,3.6
			c1.3,0.9,2.5,1.4,4.2,0.9C232.5,144.6,232.3,145,232.1,145.4z"/>
		<path class="st10" d="M218.1,140.7c0,0,0.1,1.2-1.6,2.3C216.5,143,216.7,141.4,218.1,140.7z"/>
		<circle class="st16" cx="209" cy="136.6" r="0.6"/>
		<circle class="st16" cx="208.9" cy="134.6" r="0.6"/>
		<circle class="st16" cx="209.4" cy="132.7" r="0.6"/>
		<circle class="st16" cx="225.5" cy="147.9" r="0.6"/>
		<circle class="st16" cx="227.5" cy="147.3" r="0.6"/>
		<circle class="st16" cx="229" cy="146.2" r="0.6"/>
	</g>
</g>
<g id="Layer_3">
	<polygon class="st3" points="204.7,227.5 204.7,238.2 214.3,241.2 213.8,227.5 	"/>
	<polygon class="st4" points="214.3,241.2 228.8,235.2 228.3,223.8 213.8,227.5 	"/>
	<polygon class="st10" points="204,225.5 213.8,227.5 229.9,222.5 229.9,225.2 214.1,230.4 204,228.4 	"/>
	<polygon class="st3" points="204,225.5 219.6,220.8 229.9,222.5 213.8,227.5 	"/>
	<path class="st15" d="M208,226.3l15-5l1.6,0.3l-15.3,5c0,0,1.8,7.3-0.9,11.6l-2.8-1.9C205.6,236.3,209.5,231.7,208,226.3z"/>
	<polygon class="st17" points="213.8,227.5 214.1,230.4 229.9,225.2 229.9,222.5 	"/>
	<path class="st15" d="M211,223.4l10.3,1.7c0,0-0.8,7.3,2.8,9.9l1.9-1c0,0-3.5-2-3.5-9.3l-9.4-2L211,223.4z"/>
	<path class="st15" d="M223.9,212.6c-7.5,0.3-8.1,11.2-8.1,11.2s3-9.1,6.5-9.2c3.5-0.2-6.5,9.2-6.5,9.2S231.5,212.3,223.9,212.6z"/>
	<path class="st15" d="M213.2,216.8c-3-0.8-4.4,2.8-2.7,4.6c1.7,1.8,5.4,2.4,5.4,2.4c-6.4-3.3-5-5-3.1-5.6c1.9-0.5,3.1,5.6,3.1,5.6
		S216.1,217.6,213.2,216.8z"/>
	<polygon class="st17" points="11.7,213.2 15.7,226 16.4,225.7 12.2,213.1 	"/>
	<polygon class="st10" points="19.2,206 21.5,226.9 20.5,226.3 18,205.5 	"/>
	<path class="st17" d="M7.6,194.4c0,0,6.3,14.9,7.4,17.4h-0.4l-7.4-16.1L7.6,194.4z"/>
	<polygon class="st17" points="17.5,211.1 20.5,225.7 20.9,225.2 18.2,211.1 	"/>
	<path class="st15" d="M13.1,206.1l6.5,17.1l-0.8-0.5C18.7,222.7,12.8,207.5,13.1,206.1z"/>
	<polygon class="st17" points="26.1,212.5 23.9,224.5 23,223.2 25.4,212.4 	"/>
	<polygon class="st10" points="27.4,203.1 22.6,222.7 22.1,222.3 26.9,202.8 	"/>
	<polygon class="st10" points="31.2,207.1 25.6,222.9 25.2,222.9 30.8,206.7 	"/>
	<path class="st10" d="M15.6,198.9c0,0,2.9,6.1,3.2,6c0.3,0,4.4-9.2,4.4-9.2l0.6,0.8l-4.7,9.5l-1.2-0.4L15.6,198.9z"/>
	<path class="st18" d="M15.6,196.8l1,0.4c0,0,1.2-2.1,0.7-3.6C17.4,193.5,15.7,193.9,15.6,196.8z"/>
	<path class="st18" d="M14,197.1l0.8-0.7c0,0-0.2-1.8-2.3-2.6C12.5,193.8,12,195.8,14,197.1z"/>
	<path class="st18" d="M13.7,197.8l-0.1,1.2c0,0-1.4,0.3-2.7-1.5C10.9,197.5,12.1,196.6,13.7,197.8z"/>
	<path class="st18" d="M13.6,199.3l0.3,0.9c0,0-0.9,1.5-2.4,1C11.5,201.2,11.6,199.2,13.6,199.3z"/>
	<path class="st18" d="M14.3,201l1,0.3c0,0,0.1,1.4-1,1.9C14.3,203.2,13.4,201.6,14.3,201z"/>
	<path class="st18" d="M16.2,200.8l0.9-0.4c0,0,1.1,1.2,0.7,2.4C17.8,202.8,16.7,202.8,16.2,200.8z"/>
	<path class="st18" d="M17.4,197.2l0.6,1c0,0,2.1-0.4,2.6-1.7C20.5,196.4,18.8,195.6,17.4,197.2z"/>
	<path class="st18" d="M17.6,198.6l-0.3,1.1c0,0,1.5,1.2,2.7,0.2C20.1,199.8,19.6,198,17.6,198.6z"/>
	<path class="st19" d="M14.5,198.6c0,0-2.2-0.3-3.2-3c0.1-0.1,2-0.4,3.8,2.2L14.5,198.6z"/>
	<path class="st19" d="M16,197.9c0,0-0.2-2.8,2.8-3.3c0,0,0.4,2.4-1.9,3.6L16,197.9z"/>
	<path class="st19" d="M14.3,199.2c0,0-1.7,0.5-1.6,3.2c0,0,1.6,0,2.6-2.3L14.3,199.2z"/>
	<path class="st19" d="M16.1,200l1.1-1c0,0,2.2,0.6,2.5,2.7C19.6,201.7,17.6,202.5,16.1,200z"/>
	<path class="st20" d="M14.9,198.1c0,0-2-2.5-0.3-5.6c0,0,2.3,3,1.4,5.6H14.9z"/>
	<path class="st20" d="M15.1,199.8c0,0-1.2,2.4,1.1,4.9c0,0,0.9-3.2,0-4.9H15.1z"/>
	<path class="st20" d="M16.6,198.1c0,0,1.9-1.7,4.8,0c0,0-2.5,1.7-4.8,0.8V198.1z"/>
	<path class="st20" d="M14.8,198.6c0,0-2-1-4.5,0.4c0,0,1.8,1.8,4.5,0.2V198.6z"/>
	<path class="st17" d="M246,229.3c0,0-0.1,0-0.1,0c-0.2-0.1-0.3-0.3-0.3-0.5c1-3.6,3.1-13.3,1.3-15.7c-0.2-0.3-0.5-0.5-0.9-0.5
		c0,0,0,0,0,0c-2.9,0-4.9,4.2-6.1,7.8c-1.3,4-2,8-2,8c0,0.2-0.2,0.4-0.5,0.3c-0.2,0-0.4-0.2-0.3-0.5c0.1-0.7,2.6-16.5,8.9-16.5
		c0,0,0,0,0,0c0.6,0,1.1,0.3,1.5,0.8c2.4,3.1-1,15.8-1.2,16.3C246.3,229.1,246.2,229.3,246,229.3z"/>
	<path class="st14" d="M199.3,171l-2.5,9.7v0l-3,11.6l-4.4,1.1c-1.9-0.8-3.3-1.9-4.4-2.9c-1.6-1.6-2.3-3.1-2.3-3.1s4.1-4.8,9-9.9
		S199.3,171,199.3,171z"/>
	<path class="st4" d="M167.9,173.3l-0.9,2.1c-0.2,0.5,0,1,0.4,1.2l5.5,2.3c0.4,0.2,0.9-0.1,1.1-0.6l0.9-2.1L167.9,173.3z"/>
	<path class="st14" d="M151.8,125.8l-4.4-12.8c0,0,0.6-1,1.4-0.6l4.1,13L151.8,125.8z"/>
	
		<rect x="89.4" y="139.9" transform="matrix(0.4874 -0.8732 0.8732 0.4874 -79.099 153.4498)" class="st10" width="3.5" height="8.5"/>
	<path class="st10" d="M39.8,162.5c-1.1,0.3-2.2,0.4-3.2,0.3c-2-0.1-3.5-0.8-3.7-1.9c-0.4-1.5,1.7-3.4,4.7-4.2
		c0.3-0.1,0.5-0.1,0.8-0.2c3.4-0.8,6.5-0.1,6.9,1.6C45.7,159.7,43.2,161.7,39.8,162.5z"/>
	<path class="st15" d="M37.5,161.4c-0.2,0.6-0.5,1.1-0.9,1.4c-2-0.1-3.5-0.8-3.7-1.9c-0.4-1.5,1.7-3.4,4.7-4.2c0,0-3.1,2.1-3.3,3.5
		C34.1,161.6,37.5,161.4,37.5,161.4z"/>
	<path class="st3" d="M44.8,163.3l-6.3,1.4l-2.4,0.5l-0.9-3.3c0,0,0.8-1,3.4-1.8c0,0,0,0,0,0c0,0,0,0,0,0c0.3-0.1,0.6-0.2,0.9-0.3
		c2.8-0.7,4.4-0.4,4.4-0.4L44.8,163.3z"/>
	<path class="st17" d="M37.4,177.8l0.5,1.8c0,0,7.4,1.5,12.5-3.7l-0.7-2.3L37.4,177.8z"/>
	<path class="st10" d="M39.4,213.4l-1.1,3c0,0,6.3,0.2,7.4,2.8c1.1,2.6,2.3,7.9,2.3,7.9l2.8-0.9c0,0-1-9.4-3.5-10.7
		C44.8,214.2,39.4,213.4,39.4,213.4z"/>
	<polygon class="st21" points="37.6,233.3 43.3,237.1 66.8,223.2 61.3,219.3 	"/>
	<path class="st22" d="M44.8,163.3l-6.3,1.4l-0.6-1.2c0,0,5.5-2.6,4.9-3.3c-0.6-0.7-3.8-0.1-4.2,0c0.3-0.1,0.6-0.2,0.9-0.3
		c2.8-0.7,4.4-0.4,4.4-0.4L44.8,163.3z"/>
	<polygon class="st16" points="66.8,227.2 43.3,240.5 37.6,236.8 61.3,222.9 	"/>
	<path class="st10" d="M87.5,217.2l1.8,1.4c0,0-2.6,3.7-1.8,8.1c0.9,4.4-3.2,10.2-3.2,10.2l-2.4-0.7c0,0,4.5-6.3,3.2-9.5
		C83.5,222.6,87.5,217.2,87.5,217.2z"/>
	<g id="Layer_4">
	</g>
	<path class="st4" d="M103.9,240.2l-1.6,12.7h-4.7l-1.3-12.7c0-0.5,0.3-0.9,0.8-0.9h6.1C103.5,239.3,103.9,239.7,103.9,240.2z"/>
	<rect y="252.8" class="st23" width="256" height="3.2"/>
	<path class="st3" d="M102.3,240.2l-1.6,12.7h-6.7l-1.3-12.7c0-0.5,0.3-0.9,0.8-0.9h8.1C102,239.3,102.3,239.7,102.3,240.2z"/>
	<path class="st14" d="M97.5,252.8h-2l-1.3-12.7c0-0.5,0.3-0.9,0.8-0.9h2c-0.5,0-0.8,0.4-0.8,0.9L97.5,252.8z"/>
	<path class="st14" d="M108,244.7L108,244.7c0,0.7-0.1,1.4-0.5,2.2c-0.9,1.6-2.7,3-4.7,3.6c-0.1,0-0.1,0-0.2,0
		c-0.3,0-0.5-0.2-0.6-0.4c0-0.1,0-0.2,0-0.4c0.1,0.2,0.3,0.4,0.6,0.4c0.1,0,0.1,0,0.2,0c2-0.6,3.9-2,4.7-3.6
		C107.8,245.8,107.9,245.2,108,244.7z"/>
	<path class="st14" d="M106.8,244.3C106.8,244.3,106.8,244.3,106.8,244.3c0,0.1,0,0.3,0,0.4C106.8,244.6,106.8,244.4,106.8,244.3
		c-0.2-0.3-0.4-0.6-0.7-0.8c-0.8-0.4-2.2-0.2-2.6,0c-0.3,0.1-0.6-0.1-0.7-0.4c0-0.1,0-0.3,0-0.4c0.1,0.3,0.4,0.5,0.7,0.4
		c0.4-0.1,1.8-0.4,2.6,0c0.3,0.2,0.5,0.4,0.6,0.8C106.8,244,106.8,244.2,106.8,244.3z"/>
	<path class="st3" d="M108,244.7c0,0.6-0.2,1.2-0.5,1.8c-0.9,1.6-2.7,3-4.7,3.6c-0.1,0-0.1,0-0.2,0c-0.2,0-0.5-0.2-0.6-0.4
		c0.1-0.2,0.2-0.3,0.4-0.4c1.7-0.5,3.3-1.7,4-3c0.2-0.4,0.4-1,0.4-1.6v0c0-0.1,0-0.3,0-0.4c0,0,0,0,0,0c0-0.1,0-0.2-0.1-0.4
		c-0.1-0.4-0.3-0.6-0.6-0.8c-0.8-0.4-2.2-0.2-2.6,0c-0.3,0.1-0.6-0.1-0.7-0.4c0.1-0.2,0.2-0.3,0.4-0.4c0.1,0,2.1-0.6,3.5,0.1
		c0.6,0.3,1,0.8,1.2,1.5C107.9,244.2,108,244.4,108,244.7z"/>
	<path class="st24" d="M88.6,235.4V252c0,0.4-0.4,0.8-0.8,0.8H62.1c-0.4,0-0.8-0.4-0.8-0.8v-16.6c0-0.4,0.4-0.8,0.8-0.8h25.7
		C88.3,234.6,88.6,234.9,88.6,235.4z"/>
	<path class="st14" d="M81.1,235.4V252c0,0.4-0.4,0.8-0.8,0.8H54.6c-0.4,0-0.8-0.4-0.8-0.8v-16.6c0-0.4,0.4-0.8,0.8-0.8h25.7
		C80.7,234.6,81.1,234.9,81.1,235.4z"/>
	<path class="st3" d="M81.1,235.4V252c0,0.4-0.4,0.8-0.8,0.8H56.2c-0.4,0-0.8-0.4-0.8-0.8v-16.6c0-0.4,0.4-0.8,0.8-0.8h24.1
		C80.7,234.6,81.1,234.9,81.1,235.4z"/>
	<polygon class="st14" points="43.3,240.5 43.3,237.1 37.6,233.3 37.6,236.8 	"/>
	<polygon class="st22" points="43.3,237.1 66.8,223.2 66.8,227.2 43.3,240.5 	"/>
	<polygon class="st3" points="37.6,233.3 37.6,236.8 61.3,222.9 61.3,219.3 	"/>
	<polygon class="st3" points="201.5,230.2 202.2,230.2 201.5,237.1 200.3,237.1 	"/>
	<polygon class="st4" points="61.3,219.3 66.8,223.2 66.8,227.2 61.3,222.9 	"/>
	<path class="st10" d="M43.9,229.5v-0.9l2.5-1.7l0.9,0.7l-0.6,0.4c0,0,4.4,9,5.9,12.3c1.5,3.3-2.2,10-2.2,10l-2.8-1.1
		c0,0,4.1-4.8,1.8-9.6C47.2,234.8,43.9,229.5,43.9,229.5z"/>
	<path class="st11" d="M84.9,213l0.4,0.4c0.4,0.5-0.9,2.3-3,4.1c-2.1,1.8-4.1,2.8-4.5,2.3l-0.4-0.4L84.9,213z"/>
	<path class="st10" d="M82.2,214c-0.8,0.5-1.9,0.2-2.7-0.7l-6.7-7.8c-0.4-0.4-0.5-1-0.2-1.4c2-3.1,0.8-8.6-3.1-13
		c-1.1-1.3-2.3-2.4-3.6-3.2l-10.6,9.1c0.7,1.4,1.5,2.7,2.6,4c3.9,4.5,9.1,6.5,12.4,5c0.4-0.2,1,0,1.4,0.4l6.7,7.8
		c0.8,0.9,0.9,2.1,0.3,2.7c-1.1,1.2-1.6,2.2-1.3,2.5c0.4,0.5,2.4-0.6,4.5-2.3c2.1-1.8,3.4-3.6,3-4.1C84.6,212.7,83.5,213.1,82.2,214
		z"/>
	<path class="st22" d="M70.9,204.4c-0.7,0.6-1.6,1-2.5,1.1c-2.9,0.3-6.6-1.5-9.5-4.8c-1-1.1-1.8-2.3-2.3-3.5l8.4-7.2l0.9-0.8
		c1.1,0.8,2.2,1.7,3.2,2.8C72.9,196.4,73.7,202,70.9,204.4z"/>
	<path class="st3" d="M69.5,204.8c-0.3,0.3-0.7,0.5-1.1,0.7c-2.9,0.3-6.6-1.5-9.5-4.8c-1-1.1-1.8-2.3-2.3-3.5l8.4-7.2
		c0.9,0.7,1.8,1.5,2.6,2.4C71.4,196.8,72.3,202.4,69.5,204.8z"/>
	<path class="st10" d="M50.1,174.5c-2.4,1.8-4.7,2.8-6.8,3.3c0,0,0,0,0,0c-0.1,0-0.2,0-0.2,0.1c0,0-0.1,0-0.1,0l0,0
		c-2.7,0.6-4.9,0.4-6.2,0.2c-0.7-0.1-1.3-0.7-1.3-1.5l-1-9.8c-0.1-0.6,0.2-1.1,0.6-1.5c3.6-2.9,7-3.3,9-3.1c0.5,0,0.9,0.1,1.2,0.2
		c0.5,0.1,1,0.5,1.2,1l4.1,9.1C51,173.2,50.8,174,50.1,174.5z"/>
	<path class="st3" d="M95.8,150.9l-10.4,18.6c-0.9,1.5-2.8,2.1-4.3,1.2l-7.3-4.1c-0.5-0.2-0.8-0.6-1.1-1c-0.7-1-0.8-2.3-0.1-3.3
		L83,143.7c0.9-1.5,2.8-2.1,4.3-1.2l5.3,2.9l2.1,1.2C96.2,147.4,96.7,149.3,95.8,150.9z"/>
	<path class="st3" d="M99,144.1l-1,1.7c-0.3,0.6-1.1,0.8-1.7,0.5l-5.6-3.1c0,0,0,0,0,0l-4.2-2.3c-0.6-0.3-0.8-1.1-0.5-1.7l1-1.7
		c0.3-0.6,1.1-0.8,1.7-0.5l8.4,4.7l1.3,0.8C99.1,142.7,99.3,143.5,99,144.1z"/>
	<path class="st14" d="M166.5,149.7c-2,2.9-5,3.6-7.1,3.7c-1.3,0.1-2.3-0.1-2.3-0.1l-9.2-23.9l-0.6-1.5c2.8-3.5,6.7-4.3,8.9-4.4
		c1-0.1,1.7,0,1.7,0l0.4,1.4L166.5,149.7z"/>
	<path class="st3" d="M158.5,125c-0.6,0-1.1,0.1-1.6,0.2c-4.8,0.7-7.7,3.2-8.9,4.4l-0.6-1.5c2.8-3.5,6.7-4.3,8.9-4.4h0
		c0.1,0,0.2,0,0.2,0c0.1,0,0.2,0,0.3,0c0.1,0,0.2,0,0.2,0c0.6,0,0.9,0,0.9,0L158.5,125z"/>
	<path class="st10" d="M155.1,114.5c-5.1,1.2-3.2,10.2-3.2,10.2s0.6-7.5,2.5-7.9c1.9-0.4-2.5,7.9-2.5,7.9
		C154.9,121.6,160.1,113.3,155.1,114.5z"/>
	<path class="st10" d="M145.1,121.5c1.9-1,6.8,3.2,6.8,3.2s-3.7-5.3-6.9-5.1c-3.3,0.2-4.7,4.6-1.9,5.6c2.8,1,8.8-0.5,8.8-0.5
		C142.1,124.6,143.1,122.4,145.1,121.5z"/>
	<path class="st10" d="M151.8,124.7c0,0-4,0.3-5.2,0.5c-1.1,0.3-10.5,7.9-10.5,7.9l1.5,1.9c0,0,8.4-7.5,9-7.8
		C147.3,126.9,151.8,124.7,151.8,124.7z"/>
	<path class="st10" d="M151.8,124.7c0,0,5.9-4.5,7-4.8s9-1.1,9-1.1s0.3,2.2,0,2.6c-0.3,0.4-8.9,1.1-8.9,1.1L151.8,124.7z"/>
	<path class="st3" d="M181.9,168.9c-2.5,5.9-7.5,9.4-11.2,7.9c-3.7-1.6-4.8-7.6-2.3-13.5c0.8-1.9,1.8-3.5,2.9-4.8l11.9,4.9
		C183.1,165.2,182.7,167.1,181.9,168.9z"/>
	<path class="st10" d="M178.6,171.8c-0.5,1.2-1.2,2.2-2.1,3c-1.6,1.5-3.7,2-5.5,1.3c-2.7-1.1-3.8-4.9-2.3-8.4
		c0.3-0.6,0.6-1.2,0.9-1.7c0.1-1,0.5-2.6,1.5-2.5c1.2,0.1,1.6,1.1,1.6,2.3c0,0.3,0,0.6-0.1,1c-0.1,1,0.4,0.2,1.2-0.5
		c0.6-0.6,1.2-1.1,1.8-0.8c0.7,0.4,0.3,1.6,0.3,1.6s1.4-1.7,2.7-1.1c0.4,0.2,0.7,0.6,0.8,1c0.2,0.7-0.1,1.5-0.1,1.5
		C179.3,169.6,179.1,170.7,178.6,171.8z"/>
	<path class="st17" d="M218.2,176c-1.5,3-4.8,7.9-9.9,6c-4-1.5-2.5-6.9-1.5-9.1C210.3,173.8,214.5,174.9,218.2,176z"/>
	<path class="st3" d="M196.9,180.7L196.9,180.7l-3,11.6l-4.4,1.1c-1.9-0.8-3.3-1.9-4.4-2.9c3.6-0.1,4.8-7.5,5.9-9.2
		c1.1-1.8,4.6-6.5,4.6-6.5L196.9,180.7z"/>
	<path class="st10" d="M227.6,184.3c-0.6,3.1-1.8,7.6-3.8,13.7c-4.4,13.2-13.7,27-13.7,27s0,0-0.1,0c-0.2-0.1-0.6-0.2-1.1-0.5
		c-1.8-0.7-5.5-2-10.4-3c-2.7-0.6-5.8-1-9.2-1.3c-12.2-0.9-10.2-5.9-10.1-6.1l0,0c0,0,4.6-9.4,7.5-13.6c2.9-4.2,4.4-16.8,5.7-20.7
		c1.3-3.9,6-8.5,6.9-8.9c0.2-0.1,2.3,0.4,5.4,1.2c0.6,0.2,1.3,0.3,2,0.5c-0.9,2.2-2.5,7.6,1.5,9.1c5.1,2,8.4-3,9.9-6
		c0.9,0.3,1.8,0.5,2.7,0.8c3.9,1.1,6.8,2,7,2.1C228.3,179,228.3,180.7,227.6,184.3z"/>
	<path class="st17" d="M227.6,184.3c-0.6,3.1-1.8,7.6-3.8,13.7c-4.4,13.2-13.7,27-13.7,27s0,0-0.1,0c-0.2-0.1-0.6-0.2-1.1-0.5
		c-2.2-0.9-7.1-3.1-10.8-5.1c8.3,1.7,16.4-10.8,17.4-12.8c1-2-4.8-3.8-5-4.8c-0.2-1,4.8,0.6,6.3-3.1c1.5-3.7,8.5-16.5,8.5-16.5
		L227.6,184.3z"/>
	<path class="st3" d="M220.9,176.7c-0.8,1.5-2.3,3.8-4.3,5.6c-2.3,1.9-5.2,3.2-8.7,1.7c-6.4-2.6-4.5-8.7-3.1-11.8
		c0.6,0.2,1.3,0.3,2,0.5c0,0,0,0,0,0c-1,2.2-2.5,7.6,1.5,9.1c3.1,1.2,5.6-0.2,7.4-2.1c1.1-1.2,2-2.7,2.5-3.8
		C219.1,176.2,220,176.5,220.9,176.7z"/>
	<path class="st14" d="M227.9,178.8c0,0,0.8,0.5,0.9,0.9s0.9,16,0.9,16.7s0.5,0.9,0.5,1.2s-0.5,0.6-0.5,0.9s-0.2,6.6-0.2,6.6
		s-6,1.5-10.7-1.2C218.8,203.8,223.9,180.4,227.9,178.8z"/>
	<path class="st23" d="M208.9,224.6c-0.4-0.2-1-0.4-1.6-0.6c-0.1,0-0.2-0.1-0.3-0.1c-0.7-0.2-1.5-0.5-2.4-0.8
		c-0.8-0.2-1.7-0.5-2.6-0.7c-0.1,0-0.3-0.1-0.4-0.1c-0.5-0.1-1.1-0.3-1.7-0.4c-0.1,0-0.3-0.1-0.4-0.1c-0.3-0.1-0.6-0.1-0.9-0.2
		c-2.7-0.6-5.8-1-9.2-1.3c-12.2-0.9-10.2-5.9-10.1-6.1l0,0c4.5-3.8,12.1,1.1,17,4.1c0.6,0.4,1.2,0.7,1.9,1.1
		C201.8,221.5,206.6,223.6,208.9,224.6z"/>
	<path class="st15" d="M171.5,243.9l0.3,3.3c0,0.1,0.1,0.1,0.2,0l0.4-3.3H171.5z"/>
	<rect x="170.1" y="241.3" class="st4" width="3.6" height="3.6"/>
	<path class="st3" d="M198.5,225.9v2.9l-13.6-0.4l-7.1-0.2c0,0-0.6-1.7,0.3-3h19.7C198.1,225.1,198.5,225.4,198.5,225.9z"/>
	<path class="st3" d="M200.5,250.6h-36.1c-0.6,0-1.1,0.5-1.1,1.1v0c0,0.6,0.5,1.1,1.1,1.1h36.1c0.6,0,1.1-0.5,1.1-1.1v0
		C201.6,251.1,201.1,250.6,200.5,250.6z"/>
	<path class="st17" d="M175.6,238v2.8c0,0.7-0.6,1.3-1.3,1.3h-4.5c-0.7,0-1.3-0.6-1.3-1.3V238H175.6z"/>
	<path class="st10" d="M174.8,238v2.8c0,0.7-0.6,1.3-1.3,1.3h-3.7c-0.7,0-1.3-0.6-1.3-1.3V238H174.8z"/>
	<path class="st15" d="M171.4,242.2h-0.8c-0.7,0-1.3-0.6-1.3-1.3V238h0.8v2.8C170.1,241.6,170.7,242.2,171.4,242.2z"/>
	<path class="st4" d="M198.5,225.9v2.9l-13.6-0.4l0.1-0.4c0,0,7.5-0.6,9.4-1.3c0.8-0.3,1.2-0.9,1.4-1.5h1.9
		C198.1,225.1,198.5,225.4,198.5,225.9z"/>
	<path class="st4" d="M199.8,229.3h0.8c0.5,0,0.9,0.4,0.8,0.9l-1,8.5h-1.4L199.8,229.3z"/>
	<path class="st3" d="M199.8,229.3v19.8l-8.3,0.4l-2,0.1v-6.7c0-1-0.4-1.9-1.1-2.6l-0.5-0.5c-0.7-0.7-1.6-1.1-2.6-1.1h-17.6
		c-0.6,0-1.1-0.4-1.3-1c-0.5-1.8-1.3-5.8,1.3-9.9h30.7C199.2,227.9,199.8,228.5,199.8,229.3z"/>
	<path class="st17" d="M160.3,248.6c0,0-0.7-0.6,0-1.6h20.4c0,0,0.5,1,0,1.6H160.3z"/>
	<path class="st10" d="M181.6,248.6c0,0,0.8,1.1,0,2h-22.6c0,0-0.6-1.2,0-2H181.6z"/>
	<polygon class="st16" points="250.9,252.8 232.7,252.8 235.2,226.9 248.7,226.9 	"/>
	<path class="st4" d="M250.9,252.8h-11c-0.8-6.9-2.3-20.5-2.3-20.5l7.6-5.4l2.2,1.8l1.4-1.8L250.9,252.8z"/>
	<path class="st17" d="M33.9,240.5c0,6.7-7.2,10.5-7.2,10.5H16.1c0,0-7.2-3.8-7.2-10.5c0-4.4,2.2-7.6,3.8-9.2c0.8-0.9,1-2.2,0.5-3.3
		l-2.3-5.1H32l-2.3,5.1c-0.5,1.1-0.3,2.4,0.5,3.3C31.7,233,33.9,236.1,33.9,240.5z"/>
	<path class="st10" d="M30.7,240.4L30.7,240.4c0,1.5-0.3,2.8-0.8,3.9c-0.1,0.2-0.2,0.4-0.3,0.5c-2,4-6.1,6.2-6.1,6.2h-7.5
		c0,0-7.2-3.8-7.2-10.5c0-4.4,2.2-7.6,3.8-9.2c0.8-0.9,1-2.2,0.5-3.3l-2.3-5.1h18l-2.3,5.1c-0.5,1.1-0.3,2.4,0.5,3.3
		c0.9,1,2,2.4,2.8,4.4c0.1,0.3,0.3,0.6,0.4,1c0.2,0.6,0.4,1.3,0.5,2C30.7,239.2,30.7,239.8,30.7,240.4z"/>
	<path class="st15" d="M21.2,251h-2.8c0,0-7.2-3.8-7.2-10.5c0-4.4,2.2-7.6,3.8-9.2c0.8-0.9,1-2.2,0.5-3.3l-2.3-5.1H16l2.3,5.1
		c0.5,1.1,0.3,2.4-0.5,3.3c-1.5,1.7-3.8,4.9-3.8,9.2C14.1,247.2,21.2,251,21.2,251z"/>
	<circle class="st3" cx="15.6" cy="199" r="1.5"/>
	<circle class="st16" cx="15.6" cy="199" r="1.1"/>
	<path class="st18" d="M28,201.4l0.8,0.7c0,0,1.9-1.6,1.9-3.2C30.7,198.9,29,198.7,28,201.4z"/>
	<path class="st18" d="M26.3,201.1l1-0.4c0,0,0.4-1.8-1.2-3.3C26.1,197.5,24.9,199.2,26.3,201.1z"/>
	<path class="st18" d="M25.8,201.7l-0.5,1.1c0,0-1.4-0.2-2.1-2.4C23.2,200.4,24.7,200,25.8,201.7z"/>
	<path class="st18" d="M25.2,203l0,0.9c0,0-1.4,1.1-2.6,0.1C22.5,204.1,23.3,202.2,25.2,203z"/>
	<path class="st18" d="M25.2,204.8l0.8,0.6c0,0-0.3,1.3-1.6,1.4C24.5,206.9,24.2,205.2,25.2,204.8z"/>
	<path class="st18" d="M27.1,205.4l1-0.1c0,0,0.6,1.5-0.2,2.4C27.9,207.7,26.8,207.4,27.1,205.4z"/>
	<path class="st18" d="M29.4,202.3l0.2,1.1c0,0,2.1,0.4,3-0.7C32.6,202.7,31.3,201.4,29.4,202.3z"/>
	<path class="st18" d="M29.2,203.8l-0.6,0.9c0,0,1,1.7,2.5,1.1C31.1,205.8,31.3,203.9,29.2,203.8z"/>
	<path class="st19" d="M26.2,202.7c0,0-2-1.1-2-3.9c0.2,0,2,0.3,2.8,3.3L26.2,202.7z"/>
	<path class="st19" d="M27.9,202.5c0,0,0.8-2.7,3.7-2.1c0,0-0.5,2.4-3,2.8L27.9,202.5z"/>
	<path class="st19" d="M25.9,203.2c0,0-1.7-0.1-2.6,2.4c0,0,1.5,0.5,3.2-1.2L25.9,203.2z"/>
	<path class="st19" d="M27.2,204.6l1.4-0.6c0,0,1.9,1.4,1.4,3.4C30,207.4,27.8,207.4,27.2,204.6z"/>
	<path class="st20" d="M26.8,202.4c0,0-1-3,1.6-5.3c0,0,1.1,3.6-0.6,5.7L26.8,202.4z"/>
	<path class="st20" d="M26.4,204c0,0-2,1.8-0.6,5c0,0,2-2.7,1.7-4.6L26.4,204z"/>
	<path class="st20" d="M28.4,203c0,0,2.4-0.9,4.5,1.7c0,0-3,0.7-4.8-0.9L28.4,203z"/>
	<path class="st20" d="M26.5,202.8c0,0-1.5-1.6-4.4-1.2c0,0,1.1,2.3,4.2,1.8L26.5,202.8z"/>
	<circle class="st3" cx="27.2" cy="203.4" r="1.5"/>
	<circle class="st16" cx="27.2" cy="203.4" r="1.1"/>
	<path class="st18" d="M24.5,193.3l1,0.9c0,0,2.4-2,2.5-4C28,190.1,25.8,189.9,24.5,193.3z"/>
	<path class="st18" d="M22.3,193l1.2-0.5c0,0,0.6-2.3-1.5-4.2C22,188.4,20.5,190.5,22.3,193z"/>
	<path class="st18" d="M21.7,193.7l-0.7,1.4c0,0-1.8-0.3-2.6-3C18.4,192.1,20.3,191.5,21.7,193.7z"/>
	<path class="st18" d="M20.9,195.5l0,1.2c0,0-1.8,1.4-3.4,0.1C17.5,196.8,18.5,194.4,20.9,195.5z"/>
	<path class="st18" d="M20.9,197.8l1.1,0.8c0,0-0.4,1.7-2,1.8C20,200.4,19.6,198.2,20.9,197.8z"/>
	<path class="st18" d="M23.3,198.4l1.3-0.1c0,0,0.8,2-0.2,3.1C24.4,201.5,23,201,23.3,198.4z"/>
	<path class="st18" d="M26.3,194.6l0.2,1.4c0,0,2.7,0.5,3.9-0.9C30.4,195.1,28.8,193.3,26.3,194.6z"/>
	<path class="st18" d="M26,196.4l-0.8,1.2c0,0,1.2,2.1,3.2,1.4C28.4,199,28.7,196.6,26,196.4z"/>
	<path class="st19" d="M22.2,195c0,0-2.5-1.4-2.5-5c0.2-0.1,2.5,0.4,3.6,4.3L22.2,195z"/>
	<path class="st19" d="M24.3,194.8c0,0,1-3.5,4.8-2.7c0,0-0.6,3-3.9,3.5L24.3,194.8z"/>
	<path class="st19" d="M21.8,195.7c0,0-2.2-0.1-3.4,3.1c0,0,2,0.7,4.1-1.6L21.8,195.7z"/>
	<path class="st19" d="M23.5,197.4l1.8-0.8c0,0,2.4,1.7,1.8,4.4C27,201,24.2,201.1,23.5,197.4z"/>
	<path class="st20" d="M23,194.7c0,0-1.3-3.9,2.1-6.9c0,0,1.4,4.6-0.8,7.3L23,194.7z"/>
	<path class="st20" d="M22.4,196.7c0,0-2.5,2.4-0.8,6.4c0,0,2.5-3.4,2.2-5.8L22.4,196.7z"/>
	<path class="st20" d="M25,195.4c0,0,3-1.2,5.7,2.1c0,0-3.8,0.9-6.1-1.1L25,195.4z"/>
	<path class="st20" d="M22.6,195.1c0,0-1.9-2.1-5.6-1.5c0,0,1.4,2.9,5.3,2.3L22.6,195.1z"/>
	<circle class="st3" cx="23.5" cy="196" r="1.9"/>
	<circle class="st16" cx="23.5" cy="196" r="1.4"/>
	<path class="st18" d="M18.2,209.5l0.6,0.5c0,0,1.4-1.2,1.5-2.4C20.3,207.6,19,207.5,18.2,209.5z"/>
	<path class="st18" d="M16.9,209.3l0.7-0.3c0,0,0.3-1.4-0.9-2.5C16.7,206.6,15.8,207.8,16.9,209.3z"/>
	<path class="st18" d="M16.5,209.7l-0.4,0.8c0,0-1.1-0.2-1.6-1.8C14.6,208.8,15.7,208.4,16.5,209.7z"/>
	<path class="st18" d="M16,210.8l0,0.7c0,0-1.1,0.9-2,0.1C14,211.6,14.6,210.1,16,210.8z"/>
	<path class="st18" d="M16.1,212.2l0.6,0.5c0,0-0.3,1-1.2,1.1C15.5,213.7,15.3,212.4,16.1,212.2z"/>
	<path class="st18" d="M17.5,212.5l0.8,0c0,0,0.5,1.2-0.1,1.9C18.1,214.4,17.3,214.1,17.5,212.5z"/>
	<path class="st18" d="M19.3,210.2l0.1,0.8c0,0,1.6,0.3,2.3-0.5C21.7,210.6,20.7,209.5,19.3,210.2z"/>
	<path class="st18" d="M19.1,211.4l-0.5,0.7c0,0,0.7,1.3,1.9,0.8C20.5,212.9,20.7,211.5,19.1,211.4z"/>
	<path class="st19" d="M16.8,210.5c0,0-1.5-0.8-1.5-3c0.1,0,1.5,0.3,2.2,2.6L16.8,210.5z"/>
	<path class="st19" d="M18.1,210.4c0,0,0.6-2.1,2.9-1.6c0,0-0.4,1.8-2.3,2.1L18.1,210.4z"/>
	<path class="st19" d="M16.6,210.9c0,0-1.3-0.1-2,1.8c0,0,1.2,0.4,2.5-0.9L16.6,210.9z"/>
	<path class="st19" d="M17.6,212l1.1-0.5c0,0,1.4,1,1,2.6C19.7,214.1,18,214.1,17.6,212z"/>
	<path class="st20" d="M17.3,210.3c0,0-0.8-2.3,1.2-4.1c0,0,0.8,2.7-0.5,4.4L17.3,210.3z"/>
	<path class="st20" d="M16.9,211.5c0,0-1.5,1.4-0.5,3.8c0,0,1.5-2,1.3-3.5L16.9,211.5z"/>
	<path class="st20" d="M18.5,210.8c0,0,1.8-0.7,3.4,1.3c0,0-2.3,0.5-3.6-0.7L18.5,210.8z"/>
	<path class="st20" d="M17.1,210.6c0,0-1.2-1.2-3.3-0.9c0,0,0.8,1.8,3.2,1.4L17.1,210.6z"/>
	<circle class="st3" cx="17.6" cy="211.1" r="1.1"/>
	<circle class="st16" cx="17.6" cy="211.1" r="0.8"/>
	<path class="st18" d="M12.9,204.8l0.4,0.4c0,0,1-0.9,1.1-1.7C14.4,203.4,13.5,203.3,12.9,204.8z"/>
	<path class="st18" d="M12,204.7l0.5-0.2c0,0,0.2-1-0.7-1.8C11.9,202.7,11.3,203.6,12,204.7z"/>
	<path class="st18" d="M11.8,205l-0.3,0.6c0,0-0.8-0.1-1.1-1.3C10.4,204.3,11.2,204,11.8,205z"/>
	<path class="st18" d="M11.4,205.7l0,0.5c0,0-0.8,0.6-1.4,0C10,206.3,10.4,205.2,11.4,205.7z"/>
	<path class="st18" d="M11.5,206.7l0.4,0.3c0,0-0.2,0.7-0.9,0.8C11,207.8,10.9,206.9,11.5,206.7z"/>
	<path class="st18" d="M12.5,207l0.5,0c0,0,0.3,0.8-0.1,1.3C12.9,208.3,12.3,208.1,12.5,207z"/>
	<path class="st18" d="M13.7,205.3l0.1,0.6c0,0,1.2,0.2,1.6-0.4C15.5,205.5,14.8,204.8,13.7,205.3z"/>
	<path class="st18" d="M13.6,206.1l-0.3,0.5c0,0,0.5,0.9,1.4,0.6C14.6,207.2,14.7,206.2,13.6,206.1z"/>
	<path class="st19" d="M12,205.5c0,0-1.1-0.6-1.1-2.1c0.1,0,1.1,0.2,1.5,1.8L12,205.5z"/>
	<path class="st19" d="M12.9,205.4c0,0,0.4-1.5,2-1.1c0,0-0.3,1.3-1.7,1.5L12.9,205.4z"/>
	<path class="st19" d="M11.8,205.8c0,0-1,0-1.4,1.3c0,0,0.8,0.3,1.7-0.7L11.8,205.8z"/>
	<path class="st19" d="M12.5,206.5l0.8-0.3c0,0,1,0.7,0.7,1.8C14,208.1,12.8,208.1,12.5,206.5z"/>
	<path class="st20" d="M12.3,205.4c0,0-0.6-1.6,0.9-2.9c0,0,0.6,2-0.3,3.1L12.3,205.4z"/>
	<path class="st20" d="M12.1,206.2c0,0-1.1,1-0.3,2.7c0,0,1.1-1.5,0.9-2.5L12.1,206.2z"/>
	<path class="st20" d="M13.2,205.7c0,0,1.3-0.5,2.4,0.9c0,0-1.6,0.4-2.6-0.5L13.2,205.7z"/>
	<path class="st20" d="M12.2,205.6c0,0-0.8-0.9-2.4-0.7c0,0,0.6,1.3,2.3,1L12.2,205.6z"/>
	<circle class="st3" cx="12.5" cy="205.9" r="0.8"/>
	<circle class="st16" cx="12.5" cy="205.9" r="0.6"/>
	<g>
		<path class="st18" d="M5.1,195.8l-0.2-1.4c0,0-3.4-0.1-4.9,1.5C0,195.9,1.6,197.6,5.1,195.8z"/>
		<path class="st18" d="M6.6,197.6l-1.3-0.5c0,0-2.1,1.5-1.7,4.5C3.6,201.6,6.3,200.9,6.6,197.6z"/>
		<path class="st18" d="M7.7,197.4l1.5-0.7c0,0,1.3,1.5,0,4.3C9.2,201.1,7.3,200.2,7.7,197.4z"/>
		<path class="st18" d="M9.6,196.6l0.8-1c0,0,2.5,0.1,2.8,2.3C13.2,197.9,10.7,199.1,9.6,196.6z"/>
		<path class="st18" d="M11.1,194.6l-0.3-1.4c0,0,1.6-1.1,3-0.1C13.8,193.1,12.6,195.3,11.1,194.6z"/>
		<path class="st18" d="M9.6,192.4l-1.1-0.8c0,0,0.8-2.2,2.4-2.4C10.9,189.1,11.7,190.5,9.6,192.4z"/>
		<path class="st18" d="M4.5,193.5l0.8-1.3c0,0-1.9-2.3-3.8-2C1.5,190.1,1.6,192.7,4.5,193.5z"/>
		<path class="st18" d="M6.1,192.2l1.5-0.4c0,0,0.5-2.6-1.6-3.4C5.9,188.3,4,190.1,6.1,192.2z"/>
		<path class="st19" d="M8.2,196c0,0,1.1,2.9-1.4,5.9c-0.2-0.1-1.8-2.1,0.1-6.1L8.2,196z"/>
		<path class="st19" d="M6.3,194.7c0,0-3.3,2.2-5.8-1.2c0,0,2.6-2,5.7-0.1L6.3,194.7z"/>
		<path class="st19" d="M9,195.8c0,0,1.8,1.7,4.9-0.2c0,0-1.1-1.9-4.5-1.6L9,195.8z"/>
		<path class="st19" d="M8.8,193.1l-2-0.6c0,0-0.7-3.1,1.6-4.8C8.5,187.7,10.8,189.6,8.8,193.1z"/>
		<path class="st20" d="M7.3,195.7c0,0-1.6,4.1-6.6,4.1c0,0,2.1-4.7,5.8-5.5L7.3,195.7z"/>
		<path class="st20" d="M9.2,194.4c0,0,3.7-0.2,5.1-4.6c0,0-4.5,1-5.9,3.2L9.2,194.4z"/>
		<path class="st20" d="M6.1,193.7c0,0-3.3-1.2-3.2-5.8c0,0,3.7,2,4.2,5.2L6.1,193.7z"/>
		<path class="st20" d="M7.9,195.6c0,0,0.1,3.1,3.5,5.2c0,0,0.9-3.4-2.7-5.6L7.9,195.6z"/>
		<circle class="st3" cx="7.8" cy="194.3" r="2.1"/>
		<circle class="st16" cx="7.8" cy="194.3" r="1.5"/>
	</g>
	<g>
		<path class="st18" d="M24.1,213.7l-0.2-1c0,0-2.5,0-3.5,1.1C20.4,213.8,21.6,215,24.1,213.7z"/>
		<path class="st18" d="M25.2,215l-1-0.4c0,0-1.5,1.1-1.2,3.2C23.1,217.9,25,217.4,25.2,215z"/>
		<path class="st18" d="M26,214.9l1.1-0.5c0,0,0.9,1.1,0,3.1C27.1,217.5,25.7,216.9,26,214.9z"/>
		<path class="st18" d="M27.3,214.3l0.6-0.7c0,0,1.8,0,2,1.7C30,215.2,28.2,216.1,27.3,214.3z"/>
		<path class="st18" d="M28.5,212.9l-0.2-1c0,0,1.1-0.8,2.1,0C30.4,211.8,29.5,213.3,28.5,212.9z"/>
		<path class="st18" d="M27.4,211.3l-0.8-0.6c0,0,0.6-1.6,1.7-1.7C28.3,208.9,28.9,209.9,27.4,211.3z"/>
		<path class="st18" d="M23.7,212l0.6-1c0,0-1.4-1.6-2.7-1.4C21.5,209.6,21.6,211.5,23.7,212z"/>
		<path class="st18" d="M24.8,211.1l1.1-0.3c0,0,0.4-1.9-1.2-2.5C24.7,208.3,23.3,209.6,24.8,211.1z"/>
		<path class="st19" d="M26.3,213.9c0,0,0.8,2.1-1,4.2c-0.2-0.1-1.3-1.5,0.1-4.4L26.3,213.9z"/>
		<path class="st19" d="M25,212.9c0,0-2.4,1.6-4.2-0.9c0,0,1.9-1.5,4.1-0.1L25,212.9z"/>
		<path class="st19" d="M26.9,213.7c0,0,1.3,1.2,3.6-0.1c0,0-0.8-1.4-3.2-1.2L26.9,213.7z"/>
		<path class="st19" d="M26.8,211.8l-1.4-0.4c0,0-0.5-2.3,1.2-3.5C26.5,207.9,28.3,209.3,26.8,211.8z"/>
		<path class="st20" d="M25.7,213.7c0,0-1.2,3-4.7,3c0,0,1.5-3.4,4.2-3.9L25.7,213.7z"/>
		<path class="st20" d="M27.1,212.7c0,0,2.7-0.1,3.7-3.4c0,0-3.2,0.7-4.3,2.3L27.1,212.7z"/>
		<path class="st20" d="M24.9,212.2c0,0-2.4-0.9-2.3-4.2c0,0,2.7,1.4,3,3.8L24.9,212.2z"/>
		<path class="st20" d="M26.2,213.6c0,0,0.1,2.2,2.5,3.8c0,0,0.7-2.4-2-4.1L26.2,213.6z"/>
		<circle class="st3" cx="26.1" cy="212.6" r="1.5"/>
		<circle class="st16" cx="26.1" cy="212.6" r="1.1"/>
	</g>
	<g>
		<path class="st18" d="M10.3,214.3l-0.1-0.8c0,0-2,0-2.8,0.9C7.4,214.3,8.3,215.3,10.3,214.3z"/>
		<path class="st18" d="M11.2,215.3l-0.8-0.3c0,0-1.2,0.9-1,2.6C9.5,217.6,11,217.2,11.2,215.3z"/>
		<path class="st18" d="M11.8,215.2l0.9-0.4c0,0,0.7,0.9,0,2.5C12.7,217.3,11.6,216.8,11.8,215.2z"/>
		<path class="st18" d="M12.9,214.7l0.5-0.6c0,0,1.4,0,1.6,1.3C15,215.5,13.6,216.2,12.9,214.7z"/>
		<path class="st18" d="M13.8,213.6l-0.2-0.8c0,0,0.9-0.6,1.7,0C15.3,212.7,14.6,214,13.8,213.6z"/>
		<path class="st18" d="M12.9,212.3l-0.6-0.5c0,0,0.4-1.2,1.4-1.4C13.7,210.4,14.2,211.2,12.9,212.3z"/>
		<path class="st18" d="M10,212.9l0.5-0.8c0,0-1.1-1.3-2.2-1.1C8.3,211,8.3,212.5,10,212.9z"/>
		<path class="st18" d="M10.9,212.2l0.8-0.2c0,0,0.3-1.5-0.9-2C10.8,210,9.7,211,10.9,212.2z"/>
		<path class="st19" d="M12.1,214.4c0,0,0.6,1.7-0.8,3.4c-0.1-0.1-1-1.2,0-3.5L12.1,214.4z"/>
		<path class="st19" d="M11,213.6c0,0-1.9,1.3-3.3-0.7c0,0,1.5-1.2,3.3-0.1L11,213.6z"/>
		<path class="st19" d="M12.6,214.2c0,0,1,0.9,2.8-0.1c0,0-0.7-1.1-2.6-0.9L12.6,214.2z"/>
		<path class="st19" d="M12.5,212.7l-1.1-0.4c0,0-0.4-1.8,0.9-2.8C12.3,209.6,13.6,210.7,12.5,212.7z"/>
		<path class="st20" d="M11.6,214.2c0,0-0.9,2.3-3.8,2.4c0,0,1.2-2.7,3.3-3.1L11.6,214.2z"/>
		<path class="st20" d="M12.7,213.5c0,0,2.1-0.1,2.9-2.7c0,0-2.6,0.6-3.4,1.8L12.7,213.5z"/>
		<path class="st20" d="M10.9,213c0,0-1.9-0.7-1.8-3.3c0,0,2.1,1.1,2.4,3L10.9,213z"/>
		<path class="st20" d="M12,214.2c0,0,0.1,1.8,2,3c0,0,0.5-1.9-1.6-3.2L12,214.2z"/>
		<circle class="st3" cx="11.9" cy="213.4" r="1.2"/>
		<circle class="st16" cx="11.9" cy="213.4" r="0.8"/>
	</g>
	<g>
		<path class="st18" d="M29.8,207.8l-0.1-0.7c0,0-1.7,0-2.5,0.8C27.2,207.8,28,208.7,29.8,207.8z"/>
		<path class="st18" d="M30.5,208.7l-0.7-0.2c0,0-1.1,0.8-0.9,2.3C29,210.7,30.4,210.4,30.5,208.7z"/>
		<path class="st18" d="M31,208.6l0.8-0.3c0,0,0.7,0.8,0,2.2C31.8,210.5,30.9,210,31,208.6z"/>
		<path class="st18" d="M32,208.2l0.4-0.5c0,0,1.3,0,1.4,1.2C33.9,208.8,32.6,209.5,32,208.2z"/>
		<path class="st18" d="M32.8,207.2l-0.1-0.7c0,0,0.8-0.6,1.5,0C34.2,206.4,33.5,207.5,32.8,207.2z"/>
		<path class="st18" d="M32,206.1l-0.6-0.4c0,0,0.4-1.1,1.2-1.2C32.7,204.4,33.1,205.1,32,206.1z"/>
		<path class="st18" d="M29.4,206.6l0.4-0.7c0,0-1-1.2-1.9-1C27.9,204.9,28,206.2,29.4,206.6z"/>
		<path class="st18" d="M30.2,205.9l0.7-0.2c0,0,0.3-1.3-0.8-1.7C30.1,204,29.2,204.9,30.2,205.9z"/>
		<path class="st19" d="M31.3,207.9c0,0,0.5,1.5-0.7,3c-0.1-0.1-0.9-1.1,0-3.1L31.3,207.9z"/>
		<path class="st19" d="M30.4,207.2c0,0-1.7,1.1-3-0.6c0,0,1.3-1,2.9-0.1L30.4,207.2z"/>
		<path class="st19" d="M31.7,207.8c0,0,0.9,0.8,2.5-0.1c0,0-0.6-1-2.3-0.8L31.7,207.8z"/>
		<path class="st19" d="M31.6,206.4l-1-0.3c0,0-0.4-1.6,0.8-2.4C31.5,203.7,32.7,204.7,31.6,206.4z"/>
		<path class="st20" d="M30.8,207.8c0,0-0.8,2.1-3.3,2.1c0,0,1.1-2.4,2.9-2.8L30.8,207.8z"/>
		<path class="st20" d="M31.8,207.1c0,0,1.9-0.1,2.6-2.4c0,0-2.3,0.5-3,1.6L31.8,207.1z"/>
		<path class="st20" d="M30.3,206.7c0,0-1.7-0.6-1.6-2.9c0,0,1.9,1,2.1,2.7L30.3,206.7z"/>
		<path class="st20" d="M31.2,207.7c0,0,0.1,1.5,1.8,2.6c0,0,0.5-1.7-1.4-2.9L31.2,207.7z"/>
		<circle class="st3" cx="31.1" cy="207" r="1"/>
		<circle class="st16" cx="31.1" cy="207" r="0.7"/>
	</g>
	<path class="st3" d="M32.9,136.9h4c0,0,2.7,4.3-0.6,7.9l-3.4-1.2C32.9,143.5,34.9,140.6,32.9,136.9z"/>
	<path class="st14" d="M54.8,150.7l3.5-0.5c0,0-0.1,3.5,3.3,4.2l-2.7,3.2C58.9,157.7,56.4,158.4,54.8,150.7z"/>
	<path class="st10" d="M100.8,130.9l3.5-0.6c0,0-0.8,3.5,3,5.5l-3.2,1.7C104,137.4,100.3,136,100.8,130.9z"/>
	<path class="st10" d="M63.1,115.5l2.9-0.9c0,0-0.2,5.7,2.6,7.4l-2.7,1.6C65.8,123.5,62.4,123.8,63.1,115.5z"/>
	<path class="st3" d="M109,106.1c0,0-0.8,5.2-3.5,5.7l3.1,2.8c0,0,3.6-3.2,4.7-7.5L109,106.1z"/>
	<path class="st4" d="M113.4,174.5c0,0-4.6-2.7-3.9-5.4l-3.8,1.8c0,0,1.6,4.5,5.2,7.1L113.4,174.5z"/>
	<path class="st10" d="M244.6,168.6l-3.5,0c0,0,1.4-3.3-2-5.9l3.5-1.1C242.5,161.6,246,163.6,244.6,168.6z"/>
	<path class="st4" d="M230.7,188.9c0,0,1.7-5,4.4-5l-2.6-3.3c0,0-4.1,2.5-5.9,6.6L230.7,188.9z"/>
	<path class="st10" d="M192.4,101.3c0,0,0.1,4.7-3.2,6l3.7,1.6c0,0,3.1-1.5,3-7.2L192.4,101.3z"/>
	<path class="st3" d="M187.9,137.4l3.2,1.1c0,0-1.9,6,0.9,7.5l-3.3,1.2C188.6,147.2,184.6,146.2,187.9,137.4z"/>
	<path class="st3" d="M221.1,108.1l4-0.7c0,0,2.3,7.6-2,10l-3.4-2C219.7,115.5,223.7,113.4,221.1,108.1z"/>
	<path class="st10" d="M212.1,150.2l4.2-0.8c0,0,0,6,2.5,8h-3.3C215.4,157.3,211.9,154.3,212.1,150.2z"/>
	<g>
		<path class="st14" d="M66.3,203.7c-0.1,0-0.1,0-0.2,0c-4-0.6-7.4-5.6-7.6-5.8c-0.2-0.3-0.1-0.8,0.2-1.1c0.3-0.2,0.8-0.1,1.1,0.2
			c0,0,3.2,4.6,6.6,5.2c0.4,0.1,0.7,0.5,0.6,0.9C66.9,203.4,66.6,203.7,66.3,203.7z"/>
	</g>
	<rect x="9.7" y="221.8" class="st3" width="23.3" height="1.8"/>
	<rect x="16.1" y="251" class="st3" width="10.7" height="1.8"/>
	<path class="st25" d="M81.1,235.4V252c0,0.4-0.4,0.8-0.8,0.8H66.8c0,0,10.5-1.8,10.5-6.8v-11.5h3C80.7,234.6,81.1,234.9,81.1,235.4
		z"/>
	<path class="st26" d="M50.1,174.5c-2.4,1.8-4.7,2.8-6.8,3.3c2.2-0.7,4.7-4.5,3.8-7.2c-0.7-2.1-2.2-6.2-3-8.4c0.5,0,0.9,0.1,1.2,0.2
		c0.5,0.1,1,0.5,1.2,1l4.1,9.1C51,173.2,50.8,174,50.1,174.5z"/>
	<path class="st15" d="M35.6,166.8c0,0,0.5,9,1,9.7c0.5,0.7,0.8,0.8,2.8,0.6l-0.2-0.9c0,0-2.1,0.6-2.4-1
		C36.6,173.6,35.6,166.8,35.6,166.8z"/>
	<path class="st25" d="M95.8,150.9l-10.4,18.6c-0.9,1.5-2.8,2.1-4.3,1.2l-7.3-4.1c-0.5-0.2-0.8-0.6-1.1-1v0c0,0,3.6,1.5,8.4,1.3
		c4.8-0.3,10.9-13.5,12.3-16.3c1.4-2.7-0.8-5.3-0.8-5.3h0l2.1,1.2C96.2,147.4,96.7,149.3,95.8,150.9z"/>
	<path class="st25" d="M99,144.1l-1,1.7c-0.3,0.6-1.1,0.8-1.7,0.5l-5.6-3.1c0.2,0.1,4.9,1.4,5.5,0.1c0.2-0.5,0.6-1.1,0.9-1.7
		l1.3,0.8C99.1,142.7,99.3,143.5,99,144.1z"/>
	<path class="st14" d="M74.1,162.4c0,0,10.2-19.3,11.3-19.1c1.1,0.2,5.7,2.8,5.7,2.8s-4.2-1.6-5.9,0.4S74.1,162.4,74.1,162.4z"/>
	<path class="st3" d="M166.5,149.7c-2,2.9-5,3.6-7.1,3.7c0.6-0.2,4.3-1.4,4.4-4.1c0.2-2.5-5.3-19.1-7-24.2c0.5-0.1,1.1-0.1,1.6-0.2
		L166.5,149.7z"/>
	<path class="st25" d="M158.5,125c-0.6,0-1.1,0.1-1.6,0.2c-0.3-0.9-0.5-1.5-0.5-1.5h0c0.1,0,0.2,0,0.2,0c0.1,0,0.2,0,0.3,0
		c0.1,0,0.2,0,0.2,0c0.6,0,0.9,0,0.9,0L158.5,125z"/>
	<path class="st13" d="M170,166.7c0,0-2.1,4.5-0.5,6.2C169.4,172.9,171.2,168.7,170,166.7z"/>
	<path class="st13" d="M173.5,171.4c-0.1-0.1-2.4-2-1.8-4c0.6-2-0.6-3.9-0.6-3.9c1.2,0.1,1.6,1.1,1.6,2.3c0,0.3,0,0.6-0.1,1
		C171.7,168.4,173.4,171.2,173.5,171.4z"/>
	<path class="st13" d="M177.8,166.5c0,0-2.5,1.1-1.9,1.7c0.6,0.7,2.6,0.2,2.6,0.2s-1.5,0-1.2-0.6S177.8,166.5,177.8,166.5z"/>
	<path class="st13" d="M174,166.8c0,0-0.9,0.9-0.4,2.4c0.5,1.5,2.5,2.3,2.5,2.3S173.8,169.2,174,166.8z"/>
	<path class="st3" d="M229.1,196.8h-4.9C224.2,196.8,228.6,195.1,229.1,196.8z"/>
	<path class="st23" d="M215.7,179.8c-1.8,1.9-4.2,3.3-7.4,2.1c-4-1.5-2.5-6.9-1.5-9.1c-0.1,0.4-1.1,7.5,2.1,8.4
		C210.8,181.8,213.6,180.8,215.7,179.8z"/>
	<path class="st23" d="M199.3,199.9c-0.4-0.3-0.9-0.5-1.5-0.7c-0.2-0.1-0.4-0.1-0.6-0.2c-0.6-0.2-1.1-0.3-1.7-0.4
		c-0.1,0-0.2,0-0.2,0c-0.6-0.1-1.1-0.2-1.7-0.3c-0.1,0-0.1,0-0.2,0c-2.1-0.2-3.8-0.2-3.8-0.2c0.8-1.2,2.1-1.5,3.4-1.3
		c0.1,0,0.2,0,0.2,0c0.6,0.1,1.1,0.3,1.7,0.5c0.1,0,0.1,0,0.2,0.1c0.9,0.4,1.8,0.9,2.5,1.3c0.1,0,0.1,0.1,0.2,0.1
		C198.6,199.4,199.2,199.9,199.3,199.9z"/>
	<path class="st4" d="M167.1,234c0,0-0.7,4,1.4,4h19c2,0,3.6-1.6,3.6-3.6V234H167.1z"/>
	<circle class="st10" cx="172.1" cy="230.6" r="0.9"/>
	<circle class="st10" cx="176.4" cy="230.6" r="0.9"/>
	<circle class="st10" cx="180.8" cy="230.6" r="0.9"/>
	<path class="st14" d="M188.6,239.6c0,0,1.6,1.2,1.6,2.6s0,5.6,0,5.6s1.7-6.2,0.9-7.2C190.3,239.4,188.6,239.6,188.6,239.6z"/>
	<polygon class="st3" points="247.3,252.8 229.1,252.8 231.6,226.9 245.1,226.9 	"/>
	<path class="st23" d="M243,228.8C243,228.8,243,228.8,243,228.8c-0.3,0-0.4-0.2-0.4-0.5c0-0.1,1.8-13.1-1.1-16.4
		c-0.4-0.5-0.9-0.7-1.5-0.7c-0.7,0-1.3,0.3-1.9,0.9c-3.4,3.5-3.1,16-3.1,16.2c0,0.2-0.2,0.4-0.4,0.4c0,0,0,0,0,0
		c-0.2,0-0.4-0.2-0.4-0.4c0-0.5-0.3-13,3.3-16.7c0.7-0.7,1.5-1.1,2.5-1.1c0.8,0,1.5,0.3,2.1,1c3.1,3.6,1.3,16.5,1.3,17.1
		C243.4,228.6,243.2,228.8,243,228.8z"/>
	<path class="st27" d="M149.4,129.9c0,0,7.9,21.2,8.5,21.2C158.6,151,151.9,129.3,149.4,129.9z"/>
	<path class="st27" d="M176.5,174.8c0.9-0.8,1.6-1.8,2.1-3c0.5-1.1,0.7-2.2,0.7-3.3c0,0,0.3-0.8,0.1-1.5c0.4-1.1,0.7-2,0.9-2.6
		c0.1-0.5,0.7-0.8,1.2-0.7c0.5,0.1,0.8,0.7,0.7,1.2C181.9,165.8,180.1,172.6,176.5,174.8z"/>
	<path class="st28" d="M178.6,171.8c-0.5,1.2-1.2,2.2-2.1,3c-0.7,0.5-1.5,0.7-2.4,0.7c-0.1,0-0.3,0-0.4-0.1
		c-0.4-0.1-0.6-0.5-0.6-0.9c0-0.5,0.4-1,1-1c2.2,0,4.1-3.7,5.2-6.6c0.2,0.7-0.1,1.5-0.1,1.5C179.3,169.6,179.1,170.7,178.6,171.8z"
		/>
	<path class="st14" d="M240.6,252.8h-11.5l2.5-25.9h4.3c-0.5,2.7-1,6.5-1.4,10.1c0,0.2,0,0.4-0.1,0.6c-0.1,1.3-0.2,2.5-0.2,3.6
		c0,0.1,0,0.2,0,0.2c0,0.6,0,1.1,0,1.6C234.5,248.2,237.8,251.4,240.6,252.8z"/>
	<path class="st10" d="M158.3,150.5c0,0,0.1,4.7-3.2,6l3.7,1.6c0,0,3.1-1.5,3-7.2L158.3,150.5z"/>
	<path class="st16" d="M199.8,229.3v19.8l-8.3,0.4c0.1-0.5,0.1-0.9,0.1-0.9s5.5,0,6.4-3.8C199,241,199.8,229.3,199.8,229.3z"/>
	<path class="st4" d="M199.8,250.6h-14.2c-0.3,0-0.6-0.3-0.6-0.6v-0.8c0-0.3,0.3-0.6,0.6-0.6h14.2c0.3,0,0.6,0.3,0.6,0.6v0.8
		C200.5,250.3,200.2,250.6,199.8,250.6z"/>
	<path class="st3" d="M19.4,235.5c-1.3-1.2-3.4,2.2-3.4,2.2l0.3,0.3c0,0,1.1-2.1,2.8-1.8c1.7,0.3,1.9,3.9-0.3,5.4l-0.1-3.1l-0.9,0.2
		l0.3,6.9l0.8,0l-0.1-3.7C19.7,241.2,22.7,238.4,19.4,235.5z"/>
	<path class="st3" d="M25,240.8c-1.9-1.5-3.2-4.5-1.3-4.8c1.5-0.3,0.9,3.1,0.9,3.1h1c0,0,0.1-4.1-1.9-3.8c-2,0.3-1.3,4.1,0.5,5.6
		s1.9,4,0.7,4.2c-1.2,0.3-1.6-2.2-1.6-2.2l-1.1,0.1c0,0,0.4,3,2.7,2.4C27.2,245,26.5,242,25,240.8z"/>
	<path class="st29" d="M32.5,241.1c-0.4,2.1-1.8,3.2-2.8,3.7c0.1-0.2,0.2-0.4,0.3-0.5c1.4-1,2.7-3,1.6-3.6c-0.3-0.1-0.5-0.2-0.8-0.2
		c0-0.6-0.1-1.2-0.1-1.8c0.3-0.3,0.4-0.6,0.4-0.8c-0.1-0.4-0.4-0.8-0.9-1.2c-0.1-0.3-0.2-0.7-0.4-1c0.7,0.5,1.7,1.7,1.9,2.1
		c0.2,0.5-0.9,2-0.9,2S32.8,239.5,32.5,241.1z"/>
	<path class="st3" d="M28.7,245.2l-0.1-0.3c0.4-0.1,0.8-0.3,1.3-0.6c-0.1,0.2-0.2,0.4-0.3,0.5C29.1,245.1,28.7,245.2,28.7,245.2z"/>
	<path class="st3" d="M27.7,238.4l-0.6-0.5c0,0,1.8-2.6,2.5-2.4c0.1,0,0.2,0.1,0.3,0.1c0.1,0.3,0.3,0.6,0.4,1
		c-0.2-0.2-0.4-0.3-0.7-0.4C28.6,235.8,27.7,238.4,27.7,238.4z"/>
	<path class="st3" d="M28.8,241c-0.1,1.4-0.3,3-0.1,3.9c0,0.1,0,0.2,0.1,0.3l-0.5,0.2c0,0-0.5-5.3-0.1-7l1-0.1c0,0-0.1,0.9-0.3,2.1
		c0.4-0.3,1.2-1.2,1.7-1.8c0.1,0.6,0.1,1.2,0.1,1.8C29.9,240.3,29.1,240.8,28.8,241z"/>
	<path class="st17" d="M234.3,241.5c0-0.1,0-0.2,0-0.2c1-1.1,0.9-2.8,0.2-3.6c0-0.2,0-0.4,0.1-0.6
		C236.3,238.8,235.2,240.5,234.3,241.5z"/>
	<path class="st30" d="M234.3,241.2c0,0.1,0,0.2,0,0.2c-0.2,0.2-0.4,0.4-0.6,0.5l0.1,3.1l-0.7,0l-0.2-5.6l0.8-0.1l0.1,2.5
		C233.9,241.6,234.1,241.4,234.3,241.2z"/>
	<path class="st30" d="M234.5,237c0,0.2,0,0.4-0.1,0.6c-0.2-0.2-0.3-0.3-0.5-0.3c-1.4-0.3-2.3,1.4-2.3,1.4l-0.2-0.3
		c0,0,1.7-2.8,2.8-1.8C234.3,236.8,234.4,236.9,234.5,237z"/>
	<path class="st17" d="M238.8,241c-1.5-1.2-2.6-3.7-1.1-4c1.2-0.2,0.8,2.6,0.8,2.6h0.8c0,0,0.1-3.4-1.6-3.1s-1.1,3.4,0.4,4.6
		s1.6,3.3,0.5,3.5c-1,0.2-1.3-1.8-1.3-1.8l-0.9,0.1c0,0,0.3,2.5,2.2,2C240.6,244.5,240,242,238.8,241z"/>
	<path class="st17" d="M243.6,240.2c0,0,0.9-1.2,0.7-1.6c-0.2-0.4-1.3-1.7-1.8-1.9c-0.5-0.2-2,2-2,2l0.5,0.4c0,0,0.8-2.1,1.5-1.8
		s1.1,0.9,1.3,1.3c0.1,0.4-1.3,1.7-1.7,2.1c0.1-1,0.2-1.7,0.2-1.7l-0.8,0.1c-0.4,1.4,0,5.8,0,5.8l0.4-0.2c-0.2-0.7-0.1-2.2,0.1-3.5
		c0.3-0.2,1.3-0.8,2.2-0.3c1.2,0.6-1,3.2-2.4,3.5l0,0.3c0,0,2.5-0.6,3.1-3.4C245.2,240,243.6,240.2,243.6,240.2z"/>
	<path class="st31" d="M70.9,242.9c-0.3-0.3-0.4-0.7-0.5-1c-0.1-0.6-0.4-1.1-1.1-1.3c-0.3-0.1-0.5-0.2-0.7-0.5
		c-0.1-0.3-0.3-0.5-0.6-0.6c-0.2-0.1-0.4-0.2-0.5-0.3c-0.4-0.3-0.8-0.6-1.1-1c-0.1-0.1-0.3-0.2-0.4-0.1c-0.3,0.1-0.5,0.1-0.8,0
		c-0.5-0.2-1-0.2-1.5,0c-0.2,0.1-0.4,0.1-0.6,0.1c-0.2-0.1-0.4-0.1-0.6-0.1c0,0-0.1,0-0.2,0c-0.6,0.2-1.2,0.3-1.8,0.5
		c-0.2,0.1-0.2,0.2-0.2,0.3c0.1,0.5,0,1-0.4,1.4c-0.3,0.3-0.5,0.6-0.7,0.9c-0.3,0.4-0.5,0.8-0.8,1c-0.1,0.1-0.1,0.1,0,0.2
		c0.2,0.3,0.3,0.6,0.4,1c0.1,0.4,0.3,0.7,0.6,1c0.1,0.1,0.3,0.2,0.4,0.3c0.1,0,0.2,0.1,0.1,0.2c-0.1,0.2-0.1,0.4-0.2,0.6
		c-0.2,0.4-0.1,0.8,0.3,1.1c0.3,0.3,0.6,0.7,0.7,1.1c0,0.1,0.1,0.2,0.3,0.1c0.2-0.1,0.4,0,0.5,0.1c0.1,0.1,0.2,0.2,0.3,0.2
		c0.4,0.1,0.8,0.2,1.3,0.2c0.5-0.1,1,0,1.5,0.2c0.4,0.2,0.8,0.2,1.1,0c0.2-0.1,0.3,0,0.4,0.1c0.3,0.2,0.6,0.3,1,0.2
		c0.1,0,0.2,0,0.3,0c0.3,0,0.6-0.1,0.8-0.3c0.4-0.3,0.8-0.5,1.3-0.2c0.1,0.1,0.2,0,0.2-0.1c0-0.7,0.2-1.2,0.5-1.8
		c0.2-0.3,0.3-0.7,0.1-1c-0.1-0.4-0.1-0.7,0-1c0.1-0.2,0.1-0.4,0.1-0.6c0.1-0.2,0.2-0.5,0.4-0.6C71,243.1,71,243,70.9,242.9z
		 M67.3,245.8c0.1,0.5-0.2,1.1-0.7,1.3c-0.2,0.1-0.4,0.1-0.5,0.1c-0.7,0-1.1-0.4-1.1-1c0-0.2,0.1-0.2,0.2-0.2c0.3,0.1,0.5,0,0.6-0.3
		c0.1-0.2,0.2-0.2,0.4-0.2c0.1,0,0.2,0,0.3,0c0.4,0,0.7-0.2,0.9-0.6c0-0.1,0.1-0.3,0.1-0.4c0.1-0.2,0.2-0.4,0.4-0.6
		c0.1,0,0.1-0.1,0.2-0.1c0.2-0.2,0.3-0.2,0.4,0.1c0.4,0.8-0.2,1.8-1.1,1.8C67.2,245.5,67.2,245.6,67.3,245.8z M63,241.3
		c0,0.3-0.1,0.3-0.3,0.3c-0.1,0-0.3,0-0.4,0.1c-0.2,0.2-0.3,0.4-0.3,0.6c0,0.2,0.1,0.3,0.1,0.5c0,0.2-0.1,0.3-0.4,0.2
		c-0.5-0.2-0.8-0.7-0.8-1.2c0-0.3,0.1-0.7,0.3-1c0.1-0.2,0.3-0.4,0.6-0.3c0.2,0,0.3-0.1,0.3-0.3c0.1-0.4,0.3-0.6,0.6-0.5
		c0.2,0,0.4,0.1,0.4,0.4c0,0.1,0,0.2,0,0.2c0,0.2,0,0.4-0.1,0.6C63,241.1,63,241.2,63,241.3z M61,245.6c0,0.1,0.1,0.3,0,0.3
		c-0.1,0.1-0.2-0.1-0.3-0.2c-0.2-0.3-0.3-0.6-0.3-1c0.1-0.5-0.1-0.9-0.3-1.4c-0.1-0.2-0.2-0.5-0.2-0.7c0-0.4,0.2-0.7,0.5-0.9
		c0.2-0.1,0.3-0.1,0.3,0.2c0,0.1,0,0.2,0,0.2c0,0.5,0.2,0.8,0.6,1c0.1,0.1,0.2,0.1,0.3,0.3c0.1,0.1,0.1,0.3,0,0.4
		C61,244.2,61,244.9,61,245.6z M65.1,241.9L65.1,241.9c-0.1,0.1-0.2,0.1-0.4,0c-0.1-0.1-0.2-0.1-0.3,0c-0.2,0.1-0.3,0-0.3-0.2
		c-0.1-0.3-0.3-0.6-0.7-0.8c-0.2-0.1-0.2-0.4-0.2-0.7c0.1-0.2,0.2-0.2,0.4-0.2c0.2,0,0.4,0,0.6-0.1c0.5-0.1,0.7,0,1.1,0.4
		c0.2,0.3,0.2,0.7,0,1.1C65.2,241.6,65.1,241.7,65.1,241.9C65.1,241.9,65.1,241.9,65.1,241.9z M65.2,242.9c0.1,0.1,0,0.2-0.1,0.2
		c-0.3,0-0.7-0.4-0.7-0.8c0-0.1,0-0.2,0.1-0.3c0.1,0,0.2,0,0.3,0.1C65,242.4,65.1,242.6,65.2,242.9z M65.2,240
		c-0.3-0.2-0.6-0.3-1-0.1c-0.3,0.1-0.5,0.1-0.8,0c-0.2-0.1-0.3-0.1-0.5-0.2c-0.3-0.1-0.6,0-0.7,0.4c-0.1,0.3-0.3,0.4-0.6,0.4
		c-0.1,0-0.2,0.1-0.3,0.1c-0.2,0.1-0.2,0.1-0.3-0.1c0-0.1,0-0.2,0-0.2c0-0.7,0.8-1.4,1.5-1.2c0.6,0.2,1.2,0.2,1.9,0
		c0.7-0.2,1.2,0.2,1.5,0.8c0.1,0.1,0,0.3-0.2,0.3C65.4,240.2,65.3,240.1,65.2,240z M63.1,241.2c0-0.1,0.1-0.2,0.3-0.2
		c0.2,0,0.3,0.1,0.4,0.3c0.2,0.2,0.3,0.4,0.3,0.7c0,0.1,0,0.1,0,0.1c0,0-0.1,0-0.1,0c-0.2-0.1-0.4-0.2-0.6-0.3
		C63.1,241.8,63,241.4,63.1,241.2z M63.4,242.4c0-0.1,0-0.2,0.1-0.2c0.1-0.1,0.2,0,0.2,0c0.2,0.2,0.4,0.3,0.6,0.5
		c0.1,0.1,0.1,0.2-0.1,0.3c0,0-0.1,0-0.1,0.1c-0.3,0.2-0.5,0.1-0.6-0.2C63.5,242.7,63.4,242.6,63.4,242.4z M63.4,242.9
		c0,0.2-0.2,0.1-0.3,0.1c-0.2,0-0.2-0.1-0.2-0.3c0,0,0-0.1,0-0.2c0-0.1,0.1-0.1,0.2-0.1C63.3,242.4,63.4,242.7,63.4,242.9z
		 M63.9,243.4c0.2,0.2,0.3,0.4,0.4,0.6c0,0,0.1,0.1,0,0.2c-0.1,0.1-0.1,0-0.2,0c-0.1,0-0.1-0.1-0.2-0.2c-0.1-0.2-0.2-0.4-0.3-0.7
		C63.8,243.3,63.8,243.4,63.9,243.4z M64.3,243.8c0-0.1-0.1-0.1-0.1-0.2c-0.1-0.2-0.1-0.3,0.1-0.5c0.2-0.1,0.4-0.1,0.5,0.1
		c0.1,0.1,0.1,0.2,0.1,0.4c0,0,0,0,0,0c0,0.2,0,0.4-0.2,0.4C64.5,244.1,64.4,243.9,64.3,243.8z M64.7,245c0.1-0.2,0.3-0.4,0.5-0.6
		c0.1-0.1,0.2-0.1,0.2,0c0.1,0.2,0.2,0.4,0.2,0.6c0,0.3-0.1,0.4-0.4,0.4c-0.1,0-0.1,0-0.2,0C64.7,245.5,64.6,245.3,64.7,245z
		 M65.7,243.1c-0.3,0-0.4-0.1-0.3-0.4c0.2-0.4,0.4-0.7,0.8-0.9c0.1-0.1,0.2-0.1,0.3,0c0.1,0.1,0.1,0.2,0,0.3
		c-0.1,0.2-0.2,0.4-0.3,0.6C66.3,242.9,66,243.1,65.7,243.1z M66.5,243.8c0,0.1-0.1,0.2-0.2,0.2c-0.1,0-0.2-0.1-0.3-0.1
		c-0.1-0.1-0.2-0.3-0.4-0.3c-0.1,0-0.1-0.1-0.1-0.2c0-0.1,0.1-0.1,0.2-0.1C65.9,243.3,66.4,243.6,66.5,243.8z M68.4,243.3
		c-0.1-0.1,0-0.2,0-0.3c0.2-0.7-0.1-1.3-0.7-1.7c-0.3-0.1-0.4-0.4-0.7-0.5c0.1,0.3,0.3,0.5,0.3,0.8c0,0.3-0.1,0.6-0.4,0.9
		c-0.1,0.1-0.2,0.2-0.2,0.3c0.3-0.3,0.7-0.6,0.7-1.1c0-0.3,0.1-0.3,0.3-0.2c0.4,0.2,0.7,0.8,0.6,1.3c-0.1,0.2-0.1,0.5-0.2,0.7
		c0,0.1-0.1,0.2-0.2,0.2c-0.2,0.2-0.3,0.2-0.4-0.1c0-0.1-0.1-0.2-0.1-0.3c-0.1,0,0,0,0,0.1c0.2,0.5,0.1,0.9,0,1.4
		c-0.2,0.5-0.5,0.7-1,0.6c-0.1,0-0.2,0-0.3,0c-0.2,0-0.3-0.2-0.2-0.4c0.1-0.1,0.1-0.2,0-0.3c-0.2-0.2-0.2-0.5-0.2-0.8
		c0,0,0-0.1,0-0.1c0.1,0,0.1,0,0.2,0.1c0.1,0.2,0.3,0.3,0.6,0.3c0.1,0,0.3,0,0.3-0.1c0.1-0.1,0-0.2-0.1-0.3
		c-0.1-0.1-0.3-0.2-0.4-0.4c-0.1-0.2,0.2-0.2,0.3-0.4c0.2-0.3,0.3-0.6,0.4-0.9c0.1-0.2-0.1-0.4-0.4-0.3c-0.4,0.1-0.6,0.4-0.9,0.7
		c-0.1,0.1-0.1,0.3-0.3,0.2c-0.2-0.1-0.3-0.3-0.2-0.5c0,0,0-0.1,0-0.1c0.4-0.4,0.6-0.8,0.4-1.4c-0.1-0.2,0-0.3,0.2-0.3
		c0.2,0,0.3,0,0.5,0c0.3,0,0.5,0.2,0.7,0.4c0-0.1-0.1-0.2-0.2-0.3c-0.2-0.2-0.1-0.5,0.2-0.6c0.2-0.1,0.4,0,0.7,0.1
		c0.5,0.2,0.8,0.6,0.9,1.1c0.1,0.3,0.1,0.3,0.4,0.4c0.3,0,0.5,0.2,0.7,0.5c0.1,0.3,0.2,0.6,0.2,0.9c0,0.6-0.3,1-0.8,1.3
		c-0.1,0.1-0.2,0-0.2-0.1C68.7,243.7,68.5,243.5,68.4,243.3z M60,240.6c0.1-0.2,0.2-0.4,0.3-0.6c0.1-0.3,0.2-0.6,0.2-0.9
		c0-0.2,0.1-0.3,0.3-0.4c0.5-0.1,0.9-0.3,1.4-0.4c0.5-0.1,1.1,0,1.5,0.4c0,0,0.1,0.1,0.2,0.1c0,0,0-0.1,0-0.1
		c-0.2-0.4-0.2-0.4,0.2-0.6c0.4-0.1,0.7-0.2,1.1,0c0.3,0.1,0.6,0.2,1,0.1c0.1,0,0.2,0,0.3,0.1c0.5,0.5,1.2,1,1.8,1.4
		c0.2,0.2,0.4,0.4,0.4,0.7c0,0.1,0,0.1,0,0.1c-0.1,0-0.1,0-0.1-0.1c-0.2-0.3-0.5-0.6-0.9-0.7c-0.4-0.2-0.6-0.1-0.9,0.2
		c-0.3,0.3-0.6,0.3-0.7-0.1c-0.4-0.8-1-1.2-1.9-0.9c-0.4,0.1-0.8,0.1-1.2,0c-0.7-0.2-1.3,0-1.7,0.6c-0.2,0.3-0.2,0.6-0.1,0.9
		c0,0.2,0.1,0.4,0.1,0.6c0,0.3-0.3,0.6-0.6,0.6c-0.1,0-0.2,0-0.3-0.2C59.9,241.2,59.8,240.9,60,240.6z M59,243.8
		c-0.1-0.2-0.1-0.4-0.2-0.6c-0.1-0.2-0.1-0.5-0.2-0.7c-0.1-0.1-0.1-0.2,0-0.3c0.3-0.3,0.5-0.7,0.7-1c0.1-0.1,0.2-0.2,0.3-0.3
		c0.1-0.1,0.2-0.1,0.2,0c0,0.3,0.1,0.5,0.2,0.8c0,0.1,0,0.1,0,0.2c-0.2,0.5-0.1,1,0.1,1.5c0.1,0.2,0.2,0.4,0.3,0.6
		c0,0.1,0,0.3,0,0.4c0,0.1-0.1,0.2-0.3,0.2C59.6,244.5,59.2,244.2,59,243.8z M63.5,248.1c0,0.1-0.2,0.1-0.3,0.1
		c-0.2,0-0.4,0-0.6,0.1c-0.5-0.1-0.9,0-1.3-0.5c-0.1-0.1-0.2-0.1-0.3-0.1c-0.2,0-0.3-0.1-0.3-0.2c-0.1-0.4-0.4-0.6-0.6-0.9
		c-0.6-0.5-0.4-1.1,0-1.7c0.1-0.2,0.2-0.1,0.3,0.1c0.1,0.2,0.1,0.3,0.2,0.5c0.1,0.3,0.3,0.6,0.6,0.7c0.2,0.1,0.3,0.3,0.5,0.4
		c0.4,0.3,0.8,0.6,1.2,0.9c0.1,0.1,0.2,0.1,0.3,0.2c0.1,0,0.2,0.1,0.3,0.2C63.4,247.9,63.5,248,63.5,248.1z M62.6,247.2
		C62.6,247.2,62.6,247.1,62.6,247.2c0-0.4-0.2-0.4-0.4-0.4c-0.5-0.1-0.7-0.5-0.9-0.8c-0.3-0.6-0.2-1.3,0.2-1.8
		c0.1-0.1,0.1-0.2,0.3-0.2c0.1,0,0.1,0.1,0.2,0.2c0.1,0.3,0.1,0.6,0.4,0.8c0,0,0,0,0,0c-0.2-0.4-0.3-0.9-0.4-1.4
		c0-0.1,0-0.2,0.1-0.3c0.1-0.2,0.2-0.3,0.1-0.5c0-0.1,0-0.1-0.1-0.2c-0.1-0.3,0-0.5,0.2-0.7c0.3-0.1,0.6-0.1,0.8,0.1
		c0.1,0.1,0.1,0.2,0,0.3c-0.3,0.2-0.3,0.4-0.3,0.7c0,0.1,0.1,0.3,0.1,0.4c0,0.1,0,0.2,0,0.2c-0.1,0.3-0.1,0.3,0.2,0.4c0,0,0,0,0,0
		c-0.1-0.1-0.2-0.1-0.1-0.3c0.1-0.1,0.2-0.1,0.3-0.1c0.1,0,0.3,0,0.4,0.1c0.2,0.1,0.3,0.3,0.1,0.5c-0.1,0.1-0.1,0.2-0.1,0.4
		c0.3-0.3,0.6-0.2,1,0c0.1,0.1,0,0.2,0,0.3c-0.1,0.1-0.2,0.2-0.1,0.4c0.1,0.1,0.2,0.3-0.1,0.4c-0.1,0.1-0.4-0.1-0.5-0.3
		c0-0.1-0.1-0.2-0.2-0.2c-0.3-0.1-0.2-0.4-0.2-0.6c0,0.1-0.1,0.1-0.1,0.2c-0.3,0.4-0.7,0.5-1.1,0.2c0,0-0.1-0.1-0.1-0.1c0,0,0,0,0,0
		l0,0c0.2,0.2,0.5,0.4,0.8,0.3c0.3-0.1,0.6,0,0.8,0.3c0.2,0.2,0.4,0.4,0.7,0.3c0.1,0,0.1,0.1,0.1,0.1c0.1,0.7-0.2,1.4-0.9,1.6
		C63.3,247.7,63,247.5,62.6,247.2z M70.6,243.1c-0.1,0.1-0.2,0.3-0.2,0.5c-0.1,0.5-0.3,1-0.4,1.5c-0.2,0.5-0.5,0.8-1,1.1
		c-0.1,0.1-0.3,0-0.5,0c0.2,0.2,0.4,0.2,0.6,0.1c0.3-0.2,0.7-0.4,0.9-0.8c0-0.1,0.1-0.2,0.2-0.2c0.1,0,0.1,0.2,0.1,0.3
		c0,0.3-0.2,0.7-0.3,0.9c-0.2,0.4-0.4,0.7-0.4,1.2c0,0.2-0.1,0.3-0.3,0.3c-0.5,0-0.9,0.1-1.3,0.4c-0.2,0.2-0.5,0.2-0.8,0.3
		c-0.3,0-0.6,0-0.9-0.1c-0.1,0-0.1,0-0.1-0.1c0-0.1,0.1-0.1,0.1-0.1c0.1-0.1,0.3-0.1,0.4-0.1c0.7,0.1,1.2-0.2,1.5-0.8
		c0.2-0.4,0.2-0.8-0.1-1.2c-0.1-0.1-0.1-0.2-0.3-0.2c0,0.1,0.1,0.1,0.1,0.2c0.2,0.4,0.3,0.7,0.1,1.1c-0.2,0.4-0.5,0.7-1,0.7
		c-0.5,0-1,0.1-1.5,0.3c-0.5,0.2-1,0-1.4-0.2c-0.2-0.1-0.3-0.2-0.4-0.3c-0.1-0.1-0.1-0.2,0.1-0.2c0.5-0.1,0.8-0.4,1-0.8
		c0.2-0.3,0.2-0.3,0.4-0.1c0.8,0.6,2,0.2,2.2-0.7c0-0.1,0-0.1,0-0.2c0-0.3,0.1-0.4,0.4-0.4c0.2,0,0.4-0.2,0.6-0.4
		c0.1-0.1,0.1-0.2,0.2-0.3c0.1-0.4,0.4-0.8,0.8-1.1c0.7-0.6,0.7-1.7,0.1-2.4c-0.1-0.2-0.3-0.2-0.5-0.3c-0.3-0.1-0.4-0.2-0.3-0.4
		c0-0.2,0.2-0.3,0.4-0.3c0.6,0.1,0.9,0.4,1.1,0.9c0.1,0.4,0.2,0.9,0.5,1.3C70.8,242.9,70.7,243.1,70.6,243.1z"/>
	<path class="st32" d="M197.8,198.8c-0.1,0-0.1-0.1-0.2-0.1c0,0.1-0.1,0.1-0.1,0.2c-0.1,0-0.1,0.1-0.2,0.2c0.2,0.1,0.4,0.1,0.6,0.2
		C197.8,199.1,197.8,199,197.8,198.8z M195.1,197.4c-0.1,0-0.1-0.1-0.2-0.1c0,0.4,0.1,0.7,0.3,1.1c0,0,0,0.1,0.1,0.1
		c0.1,0,0.2,0,0.2,0c0-0.1-0.1-0.2-0.1-0.3C195.2,198,195.1,197.7,195.1,197.4z M193.2,197.2c-0.1-0.1-0.1-0.2,0-0.3
		c-0.1,0-0.2,0-0.2,0c0,0,0,0,0,0c-0.1,0.1-0.1,0.2,0,0.3c0.3,0.3,0.4,0.7,0.5,1.2c0.1,0,0.1,0,0.2,0c0-0.1,0-0.1,0-0.2
		C193.5,197.8,193.4,197.5,193.2,197.2z"/>
	<path class="st31" d="M209.7,197.7c-0.4-0.4-0.5-0.9-0.6-1.4c-0.2-0.9-0.5-1.5-1.5-1.7c-0.4-0.1-0.7-0.2-0.9-0.6
		c-0.2-0.3-0.4-0.6-0.8-0.8c-0.2-0.1-0.5-0.3-0.7-0.4c-0.5-0.4-1-0.8-1.5-1.4c-0.2-0.2-0.3-0.2-0.6-0.1c-0.4,0.2-0.7,0.2-1.1,0
		c-0.7-0.3-1.3-0.3-2,0c-0.3,0.2-0.5,0.2-0.8,0.1c-0.3-0.1-0.5-0.1-0.8-0.1c-0.1,0-0.2,0-0.3,0c-0.8,0.2-1.6,0.5-2.4,0.7
		c-0.2,0.1-0.3,0.2-0.2,0.4c0.1,0.7,0,1.3-0.5,1.8c-0.4,0.4-0.6,0.8-1,1.2c-0.3,0.5-0.6,1-1,1.4c0.1,0,0.2,0,0.2,0c0,0,0,0,0.1-0.1
		c0.4-0.4,0.6-0.9,0.9-1.3c0.1-0.1,0.2-0.3,0.3-0.4c0.1-0.1,0.2-0.1,0.2,0.1c0.1,0.4,0.1,0.7,0.3,1c0,0.1,0,0.2,0,0.3
		c-0.2,0.3-0.2,0.7-0.2,1c0.1,0,0.1,0,0.2,0.1c0,0,0-0.1,0-0.1c0-0.5,0.2-1,0.7-1.2c0.3-0.1,0.4-0.1,0.4,0.2c0,0.1,0,0.2,0,0.3
		c0,0.6,0.3,1,0.8,1.4c0.2,0.1,0.3,0.2,0.4,0.3c0.1,0.1,0.1,0.2,0.1,0.3c0.1,0,0.1,0.1,0.2,0.1c0-0.1,0-0.1,0-0.2
		c0-0.2,0-0.3,0.1-0.4c0.2-0.2,0.2-0.4,0.1-0.7c0-0.1-0.1-0.2-0.1-0.3c-0.1-0.4,0-0.7,0.3-0.9c0.3-0.2,0.9-0.2,1.1,0.1
		c0.2,0.1,0.2,0.3,0,0.4c-0.4,0.2-0.5,0.6-0.4,1c0,0.2,0.1,0.4,0.1,0.6c0,0.1,0,0.2,0,0.3c-0.2,0.3-0.1,0.4,0.2,0.6c0,0,0,0,0-0.1
		c-0.1-0.1-0.3-0.2-0.2-0.4c0.1-0.2,0.3-0.1,0.4-0.1c0.2,0,0.3,0,0.5,0.1c0.3,0.1,0.4,0.4,0.2,0.7c-0.1,0.1-0.1,0.3-0.2,0.5
		c0.4-0.3,0.8-0.3,1.3,0.1c0.1,0.1,0.1,0.2,0,0.3c-0.2,0.2-0.3,0.3-0.1,0.6c0.1,0.2,0.2,0.4-0.1,0.6c-0.2,0.1-0.5-0.1-0.6-0.4
		c-0.1-0.2-0.1-0.2-0.3-0.3c-0.3-0.2-0.2-0.5-0.2-0.8c0,0.1-0.1,0.1-0.1,0.2c-0.3,0.6-0.9,0.7-1.4,0.3c-0.1,0-0.1-0.1-0.2-0.1
		c0.2,0.3,0.6,0.5,1,0.4c0.5-0.1,0.8,0,1.1,0.3c0.2,0.3,0.5,0.5,0.9,0.5c0.1,0,0.2,0.1,0.2,0.2c0.2,0.9-0.2,1.8-1.2,2.1
		c-0.6,0.2-1.1-0.1-1.6-0.5c0,0-0.1-0.1-0.1-0.1c0-0.4-0.2-0.4-0.5-0.5c-0.6-0.1-0.9-0.6-1.2-1.1c-0.4-0.8-0.2-1.7,0.3-2.4
		c0.1-0.1,0.2-0.2,0.3-0.2c0.2,0,0.2,0.2,0.2,0.3c0.1,0.4,0.2,0.8,0.5,1c-0.2-0.4-0.4-0.8-0.4-1.3c-0.2-0.1-0.4-0.1-0.6-0.2
		c-0.7,0.6-0.8,1.4-0.7,2.3c0,0.2,0.1,0.4,0,0.4c-0.2,0.1-0.3-0.2-0.4-0.3c-0.3-0.3-0.4-0.8-0.4-1.4c0.1-0.5,0-1-0.2-1.6
		c-0.1,0-0.2,0-0.2,0c0.1,0.2,0.2,0.4,0.3,0.7c0.1,0.2,0.1,0.4,0,0.6c0,0.2-0.2,0.2-0.4,0.2c-0.6-0.2-1.1-0.5-1.4-1.1
		c-0.1-0.2-0.1-0.4-0.2-0.6c-0.1,0-0.1,0-0.2,0c0,0,0,0.1,0,0.1c0.1,0.5,0.3,1,0.8,1.3c0.2,0.2,0.4,0.3,0.6,0.4
		c0.1,0.1,0.2,0.1,0.1,0.3c-0.1,0.2-0.2,0.5-0.3,0.8c-0.2,0.6-0.1,1.1,0.3,1.5c0.4,0.4,0.8,0.9,1,1.5c0.1,0.2,0.2,0.2,0.4,0.2
		c0.2-0.1,0.5,0,0.7,0.2c0.1,0.1,0.2,0.2,0.4,0.2c0.5,0.2,1.1,0.3,1.7,0.2c0.7-0.1,1.4,0,2,0.3c0.5,0.2,1,0.3,1.5,0
		c0.2-0.1,0.4,0,0.6,0.1c0.4,0.3,0.9,0.3,1.3,0.2c0.1,0,0.3-0.1,0.4-0.1c0.4,0,0.8-0.1,1.1-0.3c0.5-0.4,1.1-0.6,1.8-0.3
		c0.2,0.1,0.3,0,0.3-0.2c0-0.9,0.3-1.6,0.7-2.4c0.2-0.4,0.4-0.9,0.2-1.3c-0.2-0.5-0.1-0.9,0-1.4c0.1-0.2,0.1-0.5,0.2-0.8
		c0.1-0.3,0.2-0.6,0.5-0.8C209.8,197.9,209.8,197.8,209.7,197.7z M199.8,204.7c0,0.2-0.2,0.1-0.4,0.2c-0.3,0-0.5,0.1-0.8,0.1
		c-0.6-0.1-1.3-0.1-1.7-0.6c-0.1-0.1-0.3-0.2-0.4-0.1c-0.2,0-0.4-0.1-0.5-0.3c-0.2-0.5-0.5-0.9-0.9-1.2c-0.8-0.7-0.5-1.5,0-2.2
		c0.1-0.2,0.3-0.1,0.4,0.1c0.1,0.2,0.2,0.4,0.2,0.6c0.1,0.4,0.3,0.8,0.8,1c0.3,0.1,0.4,0.3,0.7,0.5c0.5,0.4,1.1,0.7,1.5,1.2
		c0.1,0.1,0.3,0.2,0.4,0.3c0.1,0,0.3,0.1,0.4,0.2C199.7,204.3,199.8,204.5,199.8,204.7z M204.8,201.5c0.2,0.7-0.3,1.5-1,1.7
		c-0.2,0.1-0.5,0.1-0.7,0.1c-0.9,0-1.4-0.5-1.4-1.3c0-0.2,0.1-0.3,0.3-0.2c0.4,0.1,0.6,0,0.8-0.3c0.1-0.2,0.3-0.3,0.6-0.3
		c0.1,0,0.3,0,0.4,0c0.6,0,1-0.3,1.2-0.9c0.1-0.2,0.1-0.3,0.2-0.5c0.1-0.3,0.3-0.6,0.6-0.8c0.1-0.1,0.2-0.1,0.2-0.2
		c0.3-0.2,0.3-0.2,0.5,0.1c0.6,1-0.2,2.4-1.4,2.3C204.8,201.2,204.8,201.3,204.8,201.5z M206.4,198.2c-0.1-0.1-0.1-0.3,0-0.4
		c0.3-0.9-0.1-1.8-0.9-2.2c-0.3-0.2-0.6-0.5-0.9-0.7c0.2,0.4,0.3,0.7,0.3,1.1c0,0.4-0.1,0.8-0.5,1.1c-0.1,0.1-0.3,0.2-0.3,0.4
		c0.4-0.4,0.9-0.8,0.9-1.5c0-0.4,0.1-0.4,0.4-0.2c0.6,0.3,0.9,1,0.8,1.7c-0.1,0.3-0.2,0.6-0.3,0.9c0,0.1-0.1,0.2-0.2,0.3
		c-0.3,0.2-0.4,0.2-0.6-0.2c0-0.1-0.1-0.3-0.2-0.4c-0.1,0,0,0.1,0,0.1c0.3,0.6,0.2,1.2,0,1.8c-0.2,0.6-0.7,0.9-1.4,0.9
		c-0.2,0-0.3,0-0.4,0c-0.3,0-0.4-0.2-0.3-0.5c0.1-0.2,0.1-0.2,0-0.4c-0.3-0.3-0.3-0.7-0.3-1.1c0,0,0-0.1,0.1-0.1
		c0.1,0,0.2,0,0.2,0.1c0.2,0.2,0.4,0.4,0.7,0.4c0.2,0,0.3,0,0.4-0.2c0.1-0.2,0-0.3-0.1-0.4c-0.2-0.2-0.4-0.3-0.5-0.5
		c-0.1-0.3,0.3-0.3,0.4-0.5c0.2-0.4,0.4-0.8,0.5-1.2c0.1-0.3-0.2-0.5-0.5-0.4c-0.5,0.1-0.8,0.5-1.2,0.9c-0.1,0.1-0.1,0.4-0.4,0.3
		c-0.3-0.1-0.4-0.5-0.3-0.7c0-0.1,0-0.1,0.1-0.2l0,0c-0.1,0.1-0.3,0.2-0.5,0.1c-0.1-0.1-0.3-0.1-0.4,0c-0.3,0.1-0.4,0-0.4-0.2
		c-0.2-0.4-0.4-0.8-0.9-1.1c-0.3-0.1-0.3-0.5-0.2-0.9c0.1-0.3,0.3-0.3,0.6-0.3c0.3,0,0.5,0,0.8-0.1c0.6-0.2,1,0,1.4,0.6
		c0.3,0.4,0.3,1,0,1.4c-0.1,0.2-0.2,0.4-0.3,0.6c0.5-0.5,0.9-1,0.6-1.8c-0.1-0.3,0-0.4,0.3-0.4c0.2,0,0.4,0.1,0.7,0.1
		c0.4,0,0.7,0.3,1,0.5c-0.1-0.2-0.2-0.2-0.3-0.4c-0.2-0.3-0.2-0.6,0.2-0.7c0.3-0.1,0.6,0,0.9,0.1c0.6,0.3,1,0.8,1.2,1.5
		c0.1,0.5,0.1,0.5,0.6,0.5c0.5,0,0.7,0.3,0.9,0.6c0.2,0.4,0.3,0.8,0.3,1.2c0,0.8-0.4,1.3-1.1,1.7c-0.2,0.1-0.3,0-0.3-0.1
		C206.7,198.8,206.6,198.5,206.4,198.2z M202.4,197.5c0.2-0.5,0.6-1,1.1-1.2c0.2-0.1,0.3-0.1,0.4,0c0.1,0.1,0.1,0.3,0,0.4
		c-0.1,0.3-0.2,0.5-0.3,0.8c-0.2,0.3-0.6,0.5-0.9,0.5C202.4,198,202.3,197.8,202.4,197.5z M203.8,199c0.1,0.2-0.1,0.3-0.3,0.3
		c-0.1,0-0.3-0.1-0.4-0.2c-0.2-0.2-0.3-0.3-0.5-0.5c-0.1-0.1-0.1-0.1-0.1-0.2c0-0.1,0.1-0.1,0.2-0.1
		C203.1,198.3,203.7,198.7,203.8,199z M201.9,198c-0.4,0-1-0.6-1-1c0-0.2,0-0.3,0.2-0.3c0.1-0.1,0.3,0,0.3,0.1
		c0.3,0.3,0.4,0.6,0.6,1C202.2,197.9,202.1,198,201.9,198z M199,193.4c-0.4-0.1-0.8,0-1,0.5c-0.1,0.4-0.3,0.6-0.8,0.6
		c-0.1,0-0.2,0.1-0.3,0.2c-0.3,0.2-0.3,0.1-0.4-0.2c0-0.1,0-0.2,0-0.3c0-0.9,1.1-1.8,2-1.5c0.8,0.3,1.6,0.2,2.5,0
		c0.9-0.3,1.6,0.3,1.9,1.1c0.1,0.2-0.1,0.4-0.3,0.4c-0.2,0-0.3-0.1-0.5-0.2c-0.4-0.3-0.9-0.4-1.3-0.2c-0.4,0.1-0.7,0.1-1,0
		C199.5,193.6,199.3,193.5,199,193.4z M195.6,196c-0.2,0-0.3-0.1-0.4-0.2c-0.2-0.4-0.3-0.8-0.1-1.2c0.1-0.3,0.3-0.6,0.4-0.8
		c0.2-0.4,0.2-0.8,0.2-1.2c0-0.3,0.1-0.4,0.4-0.5c0.6-0.2,1.2-0.4,1.8-0.5c0.7-0.2,1.4-0.1,1.9,0.5c0.1,0.1,0.1,0.1,0.2,0.1
		c0,0,0-0.1,0-0.1c-0.3-0.5-0.2-0.5,0.3-0.7c0.5-0.2,1-0.2,1.5,0c0.4,0.2,0.9,0.3,1.3,0.1c0.2-0.1,0.3,0,0.4,0.1
		c0.7,0.7,1.5,1.3,2.4,1.9c0.3,0.2,0.5,0.5,0.6,0.9c0,0.1,0,0.2,0,0.2c-0.1,0-0.1-0.1-0.2-0.1c-0.3-0.4-0.7-0.8-1.2-1
		c-0.5-0.2-0.8-0.1-1.2,0.3c-0.4,0.4-0.7,0.4-1-0.2c-0.5-1.1-1.4-1.6-2.6-1.2c-0.6,0.2-1.1,0.2-1.7,0c-0.9-0.3-1.8,0-2.3,0.8
		c-0.2,0.4-0.3,0.7-0.2,1.1c0.1,0.3,0.1,0.5,0.1,0.8C196.4,195.7,196.1,196,195.6,196z M198.7,196.1c-0.2,0-0.4,0.1-0.5,0.2
		c-0.3,0.2-0.5,0.5-0.4,0.9c0,0.2,0.1,0.4,0.1,0.6c0,0.3-0.2,0.5-0.5,0.3c-0.7-0.3-1-0.9-1-1.6c0-0.5,0.1-0.9,0.4-1.3
		c0.2-0.3,0.5-0.5,0.8-0.5c0.3,0,0.4-0.1,0.5-0.4c0.1-0.5,0.4-0.8,0.8-0.7c0.3,0,0.5,0.1,0.5,0.5c0,0.1,0,0.2,0,0.3
		c0,0.3,0,0.5-0.2,0.7c-0.1,0.1-0.2,0.3-0.2,0.5C199.2,196,199,196.1,198.7,196.1z M199.3,195.5c0.1-0.1,0.2-0.2,0.3-0.2
		c0.2,0,0.4,0.2,0.6,0.3c0.3,0.3,0.3,0.6,0.4,0.9c0,0.1,0,0.1,0,0.2c-0.1,0-0.1,0-0.2,0c-0.2-0.2-0.5-0.3-0.8-0.4
		C199.3,196.2,199.1,195.8,199.3,195.5z M199.4,197.9c-0.3,0-0.3-0.2-0.3-0.4c0-0.1,0-0.1,0.1-0.2c0-0.1,0.1-0.2,0.3-0.2
		c0.1,0,0.4,0.4,0.3,0.6C199.7,198,199.5,197.9,199.4,197.9z M199.8,197.7c-0.1-0.2-0.1-0.4-0.2-0.6c0-0.1,0-0.3,0.2-0.3
		c0.1-0.1,0.2,0,0.3,0.1c0.3,0.2,0.5,0.4,0.8,0.7c0.1,0.2,0.1,0.3-0.1,0.4c-0.1,0-0.1,0.1-0.2,0.1
		C200.3,198.2,200,198.1,199.8,197.7z M201,199.5c-0.1,0.1-0.2,0-0.3-0.1c-0.1-0.1-0.2-0.1-0.2-0.2c-0.2-0.3-0.3-0.6-0.4-0.9
		c0.1,0,0.2,0,0.2,0.1c0.2,0.3,0.4,0.5,0.6,0.8C201,199.3,201.1,199.4,201,199.5z M201.4,199.2c-0.3,0.1-0.4-0.2-0.5-0.3
		c-0.1-0.1-0.1-0.2-0.1-0.3c-0.1-0.2-0.2-0.5,0.1-0.6c0.3-0.1,0.5-0.1,0.7,0.2c0.1,0.1,0.2,0.3,0.2,0.5c0,0,0,0,0,0
		C201.7,198.9,201.7,199.2,201.4,199.2z M201.5,200.6c0.2-0.3,0.4-0.5,0.6-0.8c0.1-0.1,0.2-0.1,0.3,0.1c0.1,0.3,0.2,0.6,0.2,0.9
		c0,0.4-0.1,0.5-0.5,0.5c-0.1,0-0.2,0-0.3,0C201.5,201.2,201.3,200.9,201.5,200.6z M209.3,198.1c-0.2,0.2-0.3,0.4-0.3,0.7
		c-0.1,0.7-0.3,1.3-0.6,2c-0.2,0.7-0.7,1.1-1.3,1.5c-0.2,0.1-0.4,0.1-0.7,0c0.3,0.3,0.6,0.3,0.8,0.1c0.5-0.3,0.9-0.6,1.1-1.1
		c0.1-0.1,0.1-0.3,0.3-0.2c0.2,0.1,0.2,0.2,0.2,0.4c-0.1,0.4-0.2,0.9-0.4,1.3c-0.3,0.5-0.5,1-0.5,1.6c0,0.3-0.2,0.4-0.4,0.4
		c-0.6-0.1-1.2,0.1-1.7,0.5c-0.3,0.2-0.7,0.3-1.1,0.3s-0.8,0-1.2-0.1c-0.1,0-0.2,0-0.2-0.1c0-0.1,0.1-0.1,0.1-0.2
		c0.2-0.1,0.4-0.1,0.6-0.1c0.9,0.1,1.6-0.3,1.9-1c0.3-0.5,0.2-1.1-0.1-1.6c-0.1-0.1-0.2-0.3-0.3-0.3c0,0.1,0.1,0.2,0.1,0.3
		c0.3,0.5,0.4,1,0.1,1.5c-0.3,0.5-0.7,0.9-1.4,0.9c-0.7,0-1.4,0.1-2,0.4c-0.7,0.3-1.3,0-1.9-0.3c-0.2-0.1-0.4-0.2-0.5-0.4
		c-0.1-0.1-0.1-0.2,0.1-0.3c0.6-0.1,1.1-0.5,1.4-1c0.2-0.3,0.2-0.3,0.6-0.1c1,0.8,2.6,0.3,3-1c0-0.1,0-0.1,0-0.2
		c0-0.3,0.2-0.5,0.5-0.6c0.3,0,0.6-0.2,0.8-0.5c0.1-0.1,0.2-0.2,0.2-0.4c0.2-0.6,0.6-1,1.1-1.4c0.9-0.8,0.9-2.2,0.2-3.1
		c-0.2-0.2-0.4-0.3-0.7-0.4c-0.4-0.1-0.5-0.2-0.4-0.5c0.1-0.3,0.2-0.4,0.6-0.3c0.8,0.1,1.2,0.5,1.5,1.2c0.2,0.6,0.3,1.2,0.6,1.7
		C209.5,197.8,209.4,197.9,209.3,198.1z"/>
</g>
</svg>
