<svg id="Layer" enable-background="new 0 0 64 64" height="512" viewBox="0 0 64 64" width="512" xmlns="http://www.w3.org/2000/svg"><path d="m46 30v24h-28v-24h-8v-8c0-6.63 5.37-12 12-12h1c0 4.97 4.03 9 9 9s9-4.03 9-9h1c6.63 0 12 5.37 12 12v8zm-7 2c0-2.21-1.79-4-4-4h-6c-1.1 0-2.1.45-2.83 1.17-.72.73-1.17 1.73-1.17 2.83 0 2.21 1.79 4 4 4h6c1.1 0 2.1-.45 2.83-1.17.72-.73 1.17-1.73 1.17-2.83z" fill="#4dd0e1"/><path d="m23 10h18c0 4.97-4.03 9-9 9s-9-4.03-9-9z" fill="#e0f7fa"/><path d="m35 28c2.21 0 4 1.79 4 4 0 1.1-.45 2.1-1.17 2.83-.73.72-1.73 1.17-2.83 1.17h-6c-2.21 0-4-1.79-4-4 0-1.1.45-2.1 1.17-2.83.73-.72 1.73-1.17 2.83-1.17z" fill="#ff7043"/><g fill="#012e52"><path d="m42 8h-20c-7.72 0-14 6.28-14 14v8c0 1.104.896 2 2 2h6v22c0 1.104.896 2 2 2h28c1.104 0 2-.896 2-2v-22h6c1.104 0 2-.896 2-2v-8c0-7.72-6.28-14-14-14zm-3.295 4c-.863 2.887-3.541 5-6.705 5s-5.842-2.113-6.705-5zm13.295 16h-4v-4c0-1.104-.896-2-2-2s-2 .896-2 2v28h-24v-28c0-1.104-.896-2-2-2s-2 .896-2 2v4h-4v-6c0-5.243 4.059-9.548 9.197-9.959.961 5.092 5.436 8.959 10.803 8.959s9.842-3.867 10.803-8.959c5.138.411 9.197 4.716 9.197 9.959z"/><path d="m35 26h-6c-1.588 0-3.092.62-4.255 1.767-1.125 1.141-1.745 2.645-1.745 4.233 0 3.309 2.691 6 6 6h6c1.588 0 3.092-.62 4.255-1.767 1.125-1.141 1.745-2.645 1.745-4.233 0-3.309-2.691-6-6-6zm1.427 7.405c-.39.384-.897.595-1.427.595h-6c-1.103 0-2-.897-2-2 0-.53.211-1.037.573-1.405.39-.384.897-.595 1.427-.595h6c1.103 0 2 .897 2 2 0 .53-.211 1.037-.573 1.405z"/></g></svg>