<svg height="512pt" viewBox="-11 0 512 512.00037" width="512pt" xmlns="http://www.w3.org/2000/svg"><path d="m486.824219 185.429688c6.1875-10.714844 2.5-24.464844-8.214844-30.648438l-262.886719-151.777344c-10.714844-6.191406-24.464844-2.503906-30.648437 8.210938l-182.070313 315.355468c-6.1875 10.714844-2.503906 24.464844 8.210938 30.648438l262.886718 151.777344c3.523438 2.035156 7.378907 3.003906 11.183594 3.003906 7.757813 0 15.316406-4.023438 19.46875-11.214844zm0 0" fill="#bdbdbd"/><path d="m396.691406 453.007812h-303.558594c-8.25 0-14.933593-6.6875-14.933593-14.9375v-364.140624c0-8.25 6.6875-14.9375 14.933593-14.9375h303.558594c8.25 0 14.9375 6.6875 14.9375 14.9375v364.140624c0 8.25-6.6875 14.9375-14.9375 14.9375zm0 0" fill="#e0e0e0"/><path d="m177.125 453.007812 96.976562 55.992188c3.523438 2.035156 7.375 3 11.179688 3 7.761719 0 15.320312-4.023438 19.472656-11.214844l27.582032-47.777344zm0 0" fill="#757575"/><path d="m478.609375 154.78125-66.980469-38.671875v199.5625l75.195313-130.238281c6.1875-10.71875 2.5-24.46875-8.214844-30.652344zm0 0" fill="#757575"/><path d="m396.691406 58.992188h-25.066406v307.15625c0 36.925781-29.933594 66.859374-66.855469 66.859374h-226.570312v5.0625c0 8.25 6.6875 14.9375 14.933593 14.9375h303.558594c8.25 0 14.9375-6.6875 14.9375-14.9375v-364.140624c0-8.25-6.6875-14.9375-14.9375-14.9375zm0 0" fill="#bdbdbd"/><path d="m359.914062 351.035156h-230c-5.703124 0-10.328124-4.625-10.328124-10.328125v-230c0-5.703125 4.625-10.324219 10.328124-10.324219h230c5.703126 0 10.324219 4.621094 10.324219 10.324219v230c0 5.703125-4.621093 10.328125-10.324219 10.328125zm0 0" fill="#42a5f5"/><path d="m330.238281 100.382812v176.328126c0 30.003906-24.320312 54.324218-54.320312 54.324218h-156.332031v9.671875c0 5.703125 4.625 10.328125 10.328124 10.328125h230c5.703126 0 10.324219-4.625 10.324219-10.328125v-230c0-5.703125-4.621093-10.324219-10.324219-10.324219zm0 0" fill="#1976d2"/><path d="m244.917969 143.945312-66.746094 170.734376c-.265625.683593.082031 1.457031.777344 1.699218 5.457031 1.90625 28.386719 9.035156 65.964843 9.035156 37.550782 0 60.476563-7.117187 65.96875-9.035156.695313-.246094 1.042969-1.011718.777344-1.699218zm0 0" fill="#ffca28"/><path d="m244.917969 143.945312-16.09375 41.164063 26.917969 68.851563c9.175781 23.480468-7.058594 49.175781-32.214844 50.847656-5.730469.378906-11.941406.605468-18.613282.605468-8.316406 0-15.90625-.355468-22.761718-.917968l-3.980469 10.183594c-.265625.6875.082031 1.457031.777344 1.699218 5.457031 1.90625 28.386719 9.035156 65.964843 9.035156 37.550782 0 60.476563-7.117187 65.96875-9.035156.695313-.242187 1.042969-1.011718.773438-1.699218zm0 0" fill="#ffa000"/><g fill="#ec407a"><path d="m184.816406 303.339844c-4.121094-.390625-7.148437-4.050782-6.757812-8.175782.390625-4.121093 4.046875-7.132812 8.175781-6.757812 37.105469 3.519531 74.320313-1.726562 108.957031-15.652344 3.839844-1.542968 8.210938.320313 9.757813 4.164063 1.542969 3.839843-.316407 8.210937-4.160157 9.753906-37.996093 15.277344-77.71875 20.292969-115.972656 16.667969zm14.855469-36.953125c-4.140625-.171875-7.355469-3.664063-7.183594-7.804688.167969-4.140625 3.691407-7.375 7.800781-7.183593 27.898438 1.148437 55.300782-3.519532 81.09375-13.9375 3.839844-1.554688 8.210938.304687 9.761719 4.144531 1.554688 3.839843-.304687 8.210937-4.144531 9.761719-26.78125 10.820312-56.28125 16.308593-87.328125 15.019531zm15.066406-37.765625c-4.011719 0-7.335937-3.175782-7.488281-7.21875-.15625-4.136719 3.074219-7.621094 7.214844-7.777344 18.351562-.6875 36.222656-4.523438 53.121094-11.402344 3.835937-1.5625 8.210937.28125 9.773437 4.121094 1.5625 3.835938-.28125 8.210938-4.121094 9.773438-18.523437 7.539062-38.105469 11.742187-58.210937 12.5-.097656.003906-.191406.003906-.289063.003906zm0 0"/><path d="m269.066406 148.792969-9.125-5.269531 9.125-5.265626c3.585938-2.070312 4.816406-6.660156 2.746094-10.246093-2.070312-3.589844-6.660156-4.8125-10.246094-2.746094l-9.125 5.269531v-10.535156c0-4.144531-3.355468-7.5-7.5-7.5-4.144531 0-7.5 3.355469-7.5 7.5v10.535156l-9.125-5.269531c-3.589844-2.070313-8.175781-.84375-10.246094 2.746094-2.070312 3.585937-.839843 8.171875 2.746094 10.246093l9.125 5.265626-9.125 5.269531c-3.585937 2.070312-4.816406 6.65625-2.746094 10.246093 2.082032 3.601563 6.675782 4.804688 10.246094 2.742188l16.625-9.597656 16.625 9.597656c3.585938 2.066406 8.171875.847656 10.246094-2.742188 2.070312-3.585937.839844-8.175781-2.746094-10.246093zm0 0"/></g></svg>