<svg xmlns="http://www.w3.org/2000/svg" height="512pt" version="1.1" viewBox="0 -47 512 512" width="512pt">
<g id="surface1">
<path d="M 122.042969 0 L 512 0 L 512 296.351562 L 122.042969 296.351562 Z M 122.042969 0 " style=" stroke:none;fill-rule:nonzero;fill:rgb(99.607843%,85.098039%,32.54902%);fill-opacity:1;" />
<path d="M 317 0 L 512 0 L 512 296.351562 L 317 296.351562 Z M 317 0 " style=" stroke:none;fill-rule:nonzero;fill:rgb(99.215686%,59.607843%,17.254902%);fill-opacity:1;" />
<path d="M 61.023438 60.882812 L 450.980469 60.882812 L 450.980469 357.234375 L 61.023438 357.234375 Z M 61.023438 60.882812 " style=" stroke:none;fill-rule:nonzero;fill:rgb(90.980392%,22.352941%,54.509804%);fill-opacity:1;" />
<path d="M 255.667969 60.882812 L 450.980469 60.882812 L 450.980469 357.234375 L 255.667969 357.234375 Z M 255.667969 60.882812 " style=" stroke:none;fill-rule:nonzero;fill:rgb(68.235294%,16.862745%,40.784314%);fill-opacity:1;" />
<path d="M 0 121.765625 L 389.957031 121.765625 L 389.957031 418.117188 L 0 418.117188 Z M 0 121.765625 " style=" stroke:none;fill-rule:nonzero;fill:rgb(5.490196%,71.372549%,80%);fill-opacity:1;" />
<path d="M 198 121.765625 L 389.957031 121.765625 L 389.957031 418.117188 L 198 418.117188 Z M 198 121.765625 " style=" stroke:none;fill-rule:nonzero;fill:rgb(0%,49.803922%,55.686275%);fill-opacity:1;" />
<path d="M 96.097656 179.039062 L 289.886719 179.039062 L 289.886719 364.242188 L 96.097656 364.242188 Z M 96.097656 179.039062 " style=" stroke:none;fill-rule:nonzero;fill:rgb(80.392157%,97.254902%,95.294118%);fill-opacity:1;" />
<path d="M 198 179.039062 L 289.882812 179.039062 L 289.882812 364.242188 L 198 364.242188 Z M 198 179.039062 " style=" stroke:none;fill-rule:nonzero;fill:rgb(13.72549%,84.313725%,87.058824%);fill-opacity:1;" />
<path d="M 203.035156 238.035156 C 210.898438 238.035156 218.433594 231.136719 218.066406 223.035156 C 217.703125 214.910156 211.460938 208.035156 203.035156 208.035156 C 195.171875 208.035156 187.636719 214.9375 188 223.035156 C 188.363281 231.164062 194.605469 238.035156 203.035156 238.035156 Z M 203.035156 238.035156 " style=" stroke:none;fill-rule:nonzero;fill:rgb(99.607843%,85.098039%,32.54902%);fill-opacity:1;" />
<path d="M 203.035156 208.035156 C 201.3125 208.035156 199.609375 208.382812 198 208.984375 L 198 237.144531 C 199.558594 237.710938 201.242188 238.035156 203.035156 238.035156 C 210.898438 238.035156 218.433594 231.136719 218.066406 223.035156 C 217.703125 214.910156 211.460938 208.035156 203.035156 208.035156 Z M 203.035156 208.035156 " style=" stroke:none;fill-rule:nonzero;fill:rgb(99.215686%,59.607843%,17.254902%);fill-opacity:1;" />
<path d="M 210.980469 284.738281 L 153.683594 233.574219 L 96.097656 271.605469 L 96.097656 364.242188 Z M 210.980469 284.738281 " style=" stroke:none;fill-rule:nonzero;fill:rgb(99.215686%,59.607843%,17.254902%);fill-opacity:1;" />
<path d="M 96.097656 334.242188 L 226.078125 257.367188 L 289.882812 304.738281 L 289.882812 364.242188 L 96.097656 364.242188 Z M 96.097656 334.242188 " style=" stroke:none;fill-rule:nonzero;fill:rgb(49.803922%,29.803922%,7.843137%);fill-opacity:1;" />
<path d="M 226.078125 257.367188 L 198 273.972656 L 198 364.242188 L 289.882812 364.242188 L 289.882812 304.738281 Z M 226.078125 257.367188 " style=" stroke:none;fill-rule:nonzero;fill:rgb(24.313725%,14.901961%,2.352941%);fill-opacity:1;" />
</g>
</svg>