<?xml version="1.0" encoding="iso-8859-1"?>
<!-- Generator: Adobe Illustrator 21.0.0, SVG Export Plug-In . SVG Version: 6.00 Build 0)  -->
<svg xmlns="http://www.w3.org/2000/svg" xmlns:xlink="http://www.w3.org/1999/xlink" version="1.1" id="Capa_1" x="0px" y="0px" viewBox="0 0 511.276 511.276" style="enable-background:new 0 0 511.276 511.276;" xml:space="preserve" width="512" height="512">
<g>
	<g>
		<polygon style="fill:#00723F;" points="246.771,390.286 138.795,440.359 225.285,502.07 305.042,390.286   "/>
	</g>
	<g>
		<polygon style="fill:#00723F;" points="285.991,9.206 206.235,120.989 264.506,120.989 372.481,70.916   "/>
	</g>
	<polygon style="fill:#007C46;" points="433.755,120.989 403.798,56.393 264.506,120.989  "/>
	<polygon style="fill:#00723F;" points="322.727,93.989 264.506,120.989 433.755,120.989 421.234,93.989  "/>
	<polygon style="fill:#007C46;" points="77.522,390.286 107.478,454.883 246.771,390.286  "/>
	<polygon style="fill:#006635;" points="305.042,390.286 246.771,390.286 138.795,440.359 169.375,462.178 295.469,403.702  "/>
	<polygon style="fill:#006635;" points="341.575,48.864 216.216,106.999 206.235,120.989 264.506,120.989 372.481,70.916  "/>
	
		<rect x="7.5" y="120.989" transform="matrix(-1 -1.224647e-16 1.224647e-16 -1 511.2764 511.2752)" style="fill:#008950;" width="496.276" height="269.297"/>
	<polygon style="fill:#00723F;" points="90.043,417.286 188.549,417.286 246.771,390.286 77.522,390.286  "/>
	<rect x="476.776" y="120.989" style="fill:#007C46;" width="27" height="269.297"/>
	<path style="fill:#45BF7F;" d="M420.614,157.739H86.582c0,23.189-18.67,45.112-41.858,45.112v105.566   c23.188,0,41.858,21.924,41.858,45.112h334.032c0-23.188,22.75-44.912,45.939-44.912V202.65   C443.364,202.65,420.614,180.927,420.614,157.739z"/>
	<path style="fill:#00B76C;" d="M420.614,157.739h-27.001l0.001,0c-7.719,27.024,22.75,62.912,45.939,62.912v69.967   c-23.188,0-53.658,35.887-45.939,62.912h27c0-23.188,22.75-44.912,45.939-44.912V202.65   C443.364,202.65,420.614,180.927,420.614,157.739z"/>
	<circle style="fill:#FFDF65;" cx="255.638" cy="255.73" r="64.08"/>
	<path style="fill:#FFCD2C;" d="M255.638,191.65c-4.633,0-9.146,0.503-13.5,1.437c28.906,6.2,50.58,31.885,50.58,62.643   c0,30.758-21.674,56.442-50.58,62.643c4.354,0.934,8.867,1.437,13.5,1.437c35.39,0,64.08-28.689,64.08-64.08   C319.718,220.34,291.029,191.65,255.638,191.65z"/>
	<g>
		<path d="M379.703,382.786H15V128.489h59.068c4.142,0,7.5-3.358,7.5-7.5c0-4.142-3.358-7.5-7.5-7.5H7.5c-4.142,0-7.5,3.358-7.5,7.5    v269.297c0,4.142,3.358,7.5,7.5,7.5h65.233l27.942,60.251c1.719,3.707,6.247,5.371,9.959,3.648l27.358-12.687l82.938,59.176    c3.328,2.374,8.091,1.573,10.462-1.749l77.514-108.64h70.799c4.142,0,7.5-3.358,7.5-7.5    C387.203,386.144,383.845,382.786,379.703,382.786z M89.267,397.786H212.77l-101.644,47.137L89.267,397.786z M223.536,491.608    l-69.892-49.868l94.782-43.954h42.051L223.536,491.608z"/>
		<path d="M503.776,113.489h-65.233l-27.941-60.252c-1.717-3.702-6.25-5.369-9.959-3.648l-27.358,12.687L290.348,3.1    c-3.328-2.372-8.091-1.574-10.462,1.75l-77.514,108.64h-98.304c-4.142,0-7.5,3.358-7.5,7.5c0,4.142,3.358,7.5,7.5,7.5h102.154    c0.002,0,0.004,0.001,0.006,0.001c0.003,0,0.006-0.001,0.008-0.001h227.495c0.009,0,0.018,0.002,0.028,0.002    c0.012,0,0.024-0.002,0.036-0.002h62.48v254.297h-86.573c-4.143,0-7.5,3.358-7.5,7.5c0,4.142,3.357,7.5,7.5,7.5h94.073    c4.143,0,7.5-3.358,7.5-7.5V120.989C511.276,116.847,507.919,113.489,503.776,113.489z M422.009,113.489H298.505L400.15,66.352    L422.009,113.489z M287.741,19.667l69.892,49.868l-94.782,43.955h-42.051L287.741,19.667z"/>
		<path d="M255.638,327.31c39.47,0,71.58-32.111,71.58-71.58c0-39.469-32.11-71.58-71.58-71.58c-39.469,0-71.58,32.11-71.58,71.58    C184.058,295.199,216.169,327.31,255.638,327.31z M255.638,199.15c31.198,0,56.58,25.381,56.58,56.58    c0,31.198-25.382,56.58-56.58,56.58c-31.198,0-56.58-25.382-56.58-56.58C199.058,224.532,224.44,199.15,255.638,199.15z"/>
		<path d="M192.146,361.03h228.468c4.143,0,7.5-3.358,7.5-7.5c0-18.881,19.04-37.412,38.438-37.412c4.143,0,7.5-3.358,7.5-7.5    V202.65c0-4.142-3.357-7.5-7.5-7.5c-19.398,0-38.438-18.531-38.438-37.412c0-4.142-3.357-7.5-7.5-7.5H86.582    c-4.142,0-7.5,3.358-7.5,7.5c0,20.037-16.055,37.612-34.358,37.612c-4.142,0-7.5,3.358-7.5,7.5v105.566c0,4.142,3.358,7.5,7.5,7.5    c18.303,0,34.358,17.576,34.358,37.612c0,4.142,3.358,7.5,7.5,7.5h75.564c4.142,0,7.5-3.358,7.5-7.5c0-4.142-3.358-7.5-7.5-7.5    H93.524c-1.558-10.524-6.328-20.714-13.609-28.778c-7.685-8.512-17.32-13.933-27.692-15.701v-91.834    c10.371-1.768,20.006-7.189,27.692-15.701c7.281-8.063,12.051-18.254,13.609-28.778h320.251    c3.783,21.557,23.287,40.646,45.277,44.288v92.215c-21.99,3.641-41.494,22.731-45.277,44.288H192.146c-4.142,0-7.5,3.358-7.5,7.5    C184.646,357.672,188.004,361.03,192.146,361.03z"/>
	</g>
</g>















</svg>
