<?xml version="1.0"?>
<svg xmlns="http://www.w3.org/2000/svg" xmlns:xlink="http://www.w3.org/1999/xlink" version="1.1" id="Capa_1" x="0px" y="0px" width="512px" height="512px" viewBox="0 0 544.68 544.68" style="enable-background:new 0 0 544.68 544.68;" xml:space="preserve" class=""><g><g>
	<g>
		<path d="M0,544.68h544.68V0H0V544.68z M179.741,272.704c-14.734-7.151-27.164-18.623-37.969-34.413    c-10.811-15.79-16.043-35.019-16.043-57.699c0-31.053,10.257-57.005,31.962-77.853c21.702-20.845,53.449-32.399,96.289-34.673    V42.84h39.78v25.227c39.78,2.445,68.786,11.683,89.443,27.721c20.658,16.041,34.067,38.008,40.344,65.897l-97.309,15.429    c-4.884-12.378-9.18-20.961-13.103-25.759c-3.923-4.789-10.196-9.63-19.376-14.511v75.653    c52.021,14.137,88.269,29.055,106.051,44.755c23.534,21.111,35.242,47.892,35.242,80.337c0,19.019-4.26,36.467-12.715,52.342    c-8.458,15.878-19.281,29.137-32.442,39.776c-13.164,10.643-27.044,18.363-41.857,23.161c-14.819,4.792-32.861,7.629-54.281,8.504    v49.648H253.98v-49.654c-24.48-2.268-45.735-6.407-61.687-12.424c-15.952-6.013-29.385-14.339-40.977-24.973    c-11.594-10.63-20.358-22.096-26.634-34.388c-6.276-12.289-10.896-27.151-14.036-44.588l105.689-12.289    c3.139,17.259,6.704,29.726,12.025,37.394c5.315,7.675,13.382,14.474,25.622,20.397v-92.402    C220.32,288.322,194.469,279.861,179.741,272.704z" data-original="#000000" class="active-path" data-old_color="#000000" fill="#59B738"/>
		<path d="M253.98,135.537c-9.18,3.681-18.238,8.237-22.592,13.669c-4.36,5.428-6.196,11.824-6.196,19.177    c0,7.711,1.698,14.413,6.12,20.104c4.421,5.694,13.488,10.459,22.668,14.29V135.537z" data-original="#000000" class="active-path" data-old_color="#000000" fill="#59B738"/>
		<path d="M326.196,376.717c6.885-7.607,10.211-16.13,10.211-25.576c0-8.222-2.794-15.783-8.62-22.695    c-5.826-6.903-18.728-13.323-34.027-19.254v83.924C309.06,389.792,319.308,384.323,326.196,376.717z" data-original="#000000" class="active-path" data-old_color="#000000" fill="#59B738"/>
	</g>
</g></g> </svg>
