<?xml version="1.0" encoding="iso-8859-1"?>
<!-- Generator: Adobe Illustrator 19.0.0, SVG Export Plug-In . SVG Version: 6.00 Build 0)  -->
<svg version="1.1" id="Capa_1" xmlns="http://www.w3.org/2000/svg" xmlns:xlink="http://www.w3.org/1999/xlink" x="0px" y="0px"
	 viewBox="0 0 512 512" style="enable-background:new 0 0 512 512;" xml:space="preserve">
<g>
	<g transform="translate(1 1)">
		<rect x="109.933" y="50.2" style="fill:#0377BC;" width="290.133" height="401.067"/>
		<rect x="109.933" y="50.2" style="fill:#02A9F4;" width="264.533" height="401.067"/>
		<g>
			<path style="fill:#6A1B9A;" d="M400.067,24.6v51.2H109.933V24.6c0.028-9.414,7.653-17.039,17.067-17.067h256
				C392.414,7.561,400.039,15.186,400.067,24.6z"/>
			<path style="fill:#6A1B9A;" d="M400.067,425.667V485.4c-0.028,9.414-7.653,17.039-17.067,17.067H127
				c-9.414-0.028-17.039-7.653-17.067-17.067v-59.733H400.067z"/>
		</g>
		<g>
			<path style="fill:#9D27B0;" d="M374.467,24.6v51.2H109.933V24.6c0.028-9.414,7.653-17.039,17.067-17.067h230.4
				C366.814,7.561,374.439,15.186,374.467,24.6z"/>
			<path style="fill:#9D27B0;" d="M374.467,425.667V485.4c-0.028,9.414-7.653,17.039-17.067,17.067H127
				c-9.414-0.028-17.039-7.653-17.067-17.067v-59.733H374.467z"/>
		</g>
		<path style="fill:#FFEB3A;" d="M197.827,173.652l14.131,21.188c2.817,4.224,1.893,9.907-2.116,13.022l-17.391,13.525
			c-3.776,2.906-4.864,8.134-2.56,12.305c8.622,16.54,20.1,31.427,33.903,43.972c12.556,13.806,27.454,25.284,44.006,33.903
			c4.171,2.304,9.399,1.216,12.305-2.56l13.525-17.391c3.115-4.01,8.798-4.933,13.022-2.116l21.862,14.575l24.593,16.401
			c4.305,2.864,5.598,8.606,2.935,13.039l-11.657,19.43c-3.093,5.252-8.089,9.112-13.952,10.778
			c-19.371,5.316-62.097,6.391-130.56-62.097s-67.413-111.206-62.097-130.56c1.666-5.863,5.526-10.859,10.778-13.952l19.405-11.665
			c4.433-2.662,10.175-1.369,13.039,2.935L197.827,173.652z"/>
	</g>
	<g>
		<path d="M384,512c14.138,0,25.6-11.461,25.6-25.6V25.6C409.6,11.462,398.138,0,384,0H128c-14.138,0-25.6,11.462-25.6,25.6v460.8
			c0,14.138,11.462,25.6,25.6,25.6H384z M119.467,486.4v-51.2h196.267c4.713,0,8.533-3.82,8.533-8.533s-3.821-8.533-8.533-8.533
			H119.467v-332.8h25.6c4.713,0,8.533-3.82,8.533-8.533c0-4.713-3.82-8.533-8.533-8.533h-25.6V25.6c0-4.713,3.821-8.533,8.533-8.533
			h256c4.713,0,8.533,3.821,8.533,8.533v42.667H196.267c-4.713,0-8.533,3.821-8.533,8.533c0,4.713,3.821,8.533,8.533,8.533h196.267
			v332.8h-25.6c-4.713,0-8.533,3.82-8.533,8.533s3.82,8.533,8.533,8.533h25.6v51.2c0,4.713-3.82,8.533-8.533,8.533H128
			C123.287,494.933,119.467,491.113,119.467,486.4z"/>
		<path d="M247.467,477.867h17.067c4.713,0,8.533-3.821,8.533-8.533c0-4.713-3.82-8.533-8.533-8.533h-17.067
			c-4.713,0-8.533,3.821-8.533,8.533C238.933,474.046,242.754,477.867,247.467,477.867z"/>
		<path d="M361.216,358.349l11.691-19.43c5.023-8.335,2.594-19.148-5.513-24.533l-46.541-30.985
			c-7.958-5.243-18.606-3.51-24.491,3.985l-13.525,17.391c-0.323,0.448-0.927,0.59-1.417,0.333l-2.56-1.425
			c-14.797-8.082-28.142-18.577-39.484-31.053c-12.475-11.342-22.971-24.687-31.053-39.484l-1.425-2.611
			c-0.26-0.486-0.118-1.09,0.333-1.408l17.399-13.534c7.496-5.882,9.223-16.533,3.968-24.482l-30.976-46.473
			c-5.396-8.092-16.198-10.515-24.533-5.504l-19.439,11.648c-7.15,4.214-12.389,11.035-14.618,19.029
			c-7.322,26.701-2.116,72.465,64.299,138.871c52.582,52.574,92.22,66.782,119.706,66.782c6.472,0.027,12.918-0.814,19.166-2.5
			C350.192,370.734,357.006,365.495,361.216,358.349z M215.398,296.602c-63.812-63.804-64.922-104.004-59.904-122.291
			c1.081-3.75,3.57-6.936,6.946-8.892l19.422-11.648c0.179-0.113,0.386-0.172,0.597-0.171c0.384,0.001,0.742,0.193,0.956,0.512
			l16.845,25.276l14.131,21.146c0.331,0.507,0.224,1.182-0.247,1.562l-17.399,13.525c-7.134,5.468-9.163,15.348-4.762,23.185
			l1.348,2.475c8.833,16.249,20.314,30.912,33.971,43.383c12.472,13.657,27.134,25.138,43.383,33.971l2.466,1.348
			c7.84,4.399,17.721,2.37,23.194-4.762l13.525-17.391c0.374-0.473,1.047-0.584,1.553-0.256l46.455,30.967
			c0.518,0.341,0.673,1.032,0.35,1.562l-11.648,19.422c-1.956,3.377-5.142,5.866-8.892,6.946
			C319.377,361.506,279.202,360.414,215.398,296.602z"/>
	</g>
</g>
<g>
</g>
<g>
</g>
<g>
</g>
<g>
</g>
<g>
</g>
<g>
</g>
<g>
</g>
<g>
</g>
<g>
</g>
<g>
</g>
<g>
</g>
<g>
</g>
<g>
</g>
<g>
</g>
<g>
</g>
</svg>
